<?xml version="1.0" encoding="UTF-8" standalone="no"?>
<svg id="icon-car" viewBox="0 0 64 64" version="1.1" xmlns="http://www.w3.org/2000/svg" xmlns:xlink="http://www.w3.org/1999/xlink">
    <g stroke="none" stroke-width="1" fill="#000000" fill-rule="evenodd">
        <path d="M15,27 C15,28.375 14.5104167,29.5520833 13.53125,30.53125 C12.5520833,31.5104167 11.375,32 10,32 C8.625,32 7.44791667,31.5104167 6.46875,30.53125 C5.48958333,29.5520833 5,28.375 5,27 C5,25.625 5.48958333,24.4479167 6.46875,23.46875 C7.44791667,22.4895833 8.625,22 10,22 C11.375,22 12.5520833,22.4895833 13.53125,23.46875 C14.5104167,24.4479167 15,25.625 15,27 L15,27 Z M16.125,37 L47.875,37 L45.09375,48.15625 C45.0520833,48.3229167 44.90625,48.5052083 44.65625,48.703125 C44.40625,48.9010417 44.1875,49 44,49 L20,49 C19.8125,49 19.59375,48.9010417 19.34375,48.703125 C19.09375,48.5052083 18.9479167,48.3229167 18.90625,48.15625 L16.125,37 Z M59,27 C59,28.375 58.5104167,29.5520833 57.53125,30.53125 C56.5520833,31.5104167 55.375,32 54,32 C52.625,32 51.4479167,31.5104167 50.46875,30.53125 C49.4895833,29.5520833 49,28.375 49,27 C49,25.625 49.4895833,24.4479167 50.46875,23.46875 C51.4479167,22.4895833 52.625,22 54,22 C55.375,22 56.5520833,22.4895833 57.53125,23.46875 C58.5104167,24.4479167 59,25.625 59,27 L59,27 Z M64,30 L64,18 C64,17.7083333 63.90625,17.46875 63.71875,17.28125 C63.53125,17.09375 63.2916667,17 63,17 L60,17 L60,13 C60,11.3333333 59.4166667,9.91666667 58.25,8.75 C57.0833333,7.58333333 55.6666667,7 54,7 C52.3333333,7 50.9166667,7.58333333 49.75,8.75 C48.5833333,9.91666667 48,11.3333333 48,13 L48,17 L16,17 L16,13 C16,11.3333333 15.4166667,9.91666667 14.25,8.75 C13.0833333,7.58333333 11.6666667,7 10,7 C8.33333333,7 6.91666667,7.58333333 5.75,8.75 C4.58333333,9.91666667 4,11.3333333 4,13 L4,17 L1,17 C0.708333333,17 0.46875,17.09375 0.28125,17.28125 C0.09375,17.46875 0,17.7083333 0,18 L0,30 C0,31.9375 0.682291667,33.5885417 2.046875,34.953125 C3.41145833,36.3177083 5.0625,37 7,37 L7.875,37 L11.15625,50.09375 C11.6354167,52.0520833 12.71875,53.6927083 14.40625,55.015625 C16.09375,56.3385417 17.9583333,57 20,57 L44,57 C46.0416667,57 47.90625,56.3385417 49.59375,55.015625 C51.28125,53.6927083 52.3645833,52.0520833 52.84375,50.09375 L56.125,37 L57,37 C58.9375,37 60.5885417,36.3177083 61.953125,34.953125 C63.3177083,33.5885417 64,31.9375 64,30 L64,30 Z" transform="translate(32.000000, 32.000000) scale(1, -1) translate(-32.000000, -32.000000)"></path>
    </g>
</svg>
