<?xml version="1.0" encoding="UTF-8" standalone="no"?>
<svg id="icon-education" viewBox="0 0 64 64" version="1.1" xmlns="http://www.w3.org/2000/svg" xmlns:xlink="http://www.w3.org/1999/xlink">
    <g stroke="none" stroke-width="1" fill="#000000" fill-rule="evenodd">
        <path d="M49.2777778,34 L49.7777778,25.2222222 C49.8518519,23.9444444 49.0925926,22.7592593 47.5,21.6666667 C45.9074074,20.5740741 43.7314815,19.7083333 40.9722222,19.0694444 C38.212963,18.4305556 35.2222222,18.1111111 32,18.1111111 C28.7777778,18.1111111 25.787037,18.4305556 23.0277778,19.0694444 C20.2685185,19.7083333 18.0925926,20.5740741 16.5,21.6666667 C14.9074074,22.7592593 14.1481481,23.9444444 14.2222222,25.2222222 L14.7222222,34 L30.6666667,28.9722222 C31.0740741,28.8425926 31.5185185,28.7777778 32,28.7777778 C32.4814815,28.7777778 32.9259259,28.8425926 33.3333333,28.9722222 L49.2777778,34 Z M64,43 C64,42.5740741 63.7962963,42.287037 63.3888889,42.1388889 L32.2777778,32.3611111 C32.2037037,32.3425926 32.1111111,32.3333333 32,32.3333333 C31.8888889,32.3333333 31.7962963,32.3425926 31.7222222,32.3611111 L13.6111111,38.0833333 C12.8148148,37.4537037 12.1574074,36.4212963 11.6388889,34.9861111 C11.1203704,33.5509259 10.8055556,31.8981481 10.6944444,30.0277778 C11.8611111,29.3611111 12.4444444,28.3518519 12.4444444,27 C12.4444444,25.7222222 11.9074074,24.7314815 10.8333333,24.0277778 L12.4444444,12 C12.4814815,11.7407407 12.4074074,11.5092593 12.2222222,11.3055556 C12.0555556,11.1018519 11.8333333,11 11.5555556,11 L6.22222222,11 C5.94444444,11 5.72222222,11.1018519 5.55555556,11.3055556 C5.37037037,11.5092593 5.2962963,11.7407407 5.33333333,12 L6.94444444,24.0277778 C5.87037037,24.7314815 5.33333333,25.7222222 5.33333333,27 C5.33333333,28.3518519 5.93518519,29.3796296 7.13888889,30.0833333 C7.34259259,33.9166667 8.25,36.9722222 9.86111111,39.25 L0.611111111,42.1388889 C0.203703704,42.287037 0,42.5740741 0,43 C0,43.4259259 0.203703704,43.712963 0.611111111,43.8611111 L31.7222222,53.6388889 C31.7962963,53.6574074 31.8888889,53.6666667 32,53.6666667 C32.1111111,53.6666667 32.2037037,53.6574074 32.2777778,53.6388889 L63.3888889,43.8611111 C63.7962963,43.712963 64,43.4259259 64,43 L64,43 Z" id="Shape" transform="translate(32.000000, 32.333333) scale(1, -1) translate(-32.000000, -32.333333)"></path>
    </g>
</svg>
