<?xml version="1.0" encoding="UTF-8" standalone="no"?>
<svg id="icon-email" viewBox="0 0 64 64" version="1.1" xmlns="http://www.w3.org/2000/svg" xmlns:xlink="http://www.w3.org/1999/xlink">
    <g stroke="none" stroke-width="1" fill="#000000" fill-rule="evenodd">
        <path d="M64,41.0714286 L64,12.7142857 C64,11.1428571 63.4404762,9.79761905 62.3214286,8.67857143 C61.202381,7.55952381 59.8571429,7 58.2857143,7 L5.71428571,7 C4.14285714,7 2.79761905,7.55952381 1.67857143,8.67857143 C0.55952381,9.79761905 0,11.1428571 0,12.7142857 L0,41.0714286 C1.04761905,39.9047619 2.25,38.8690476 3.60714286,37.9642857 C12.2261905,32.1071429 18.1428571,28 21.3571429,25.6428571 C22.7142857,24.6428571 23.8154762,23.8630952 24.6607143,23.3035714 C25.5059524,22.7440476 26.6309524,22.172619 28.0357143,21.5892857 C29.4404762,21.0059524 30.75,20.7142857 31.9642857,20.7142857 L32,20.7142857 L32.0357143,20.7142857 C33.25,20.7142857 34.5595238,21.0059524 35.9642857,21.5892857 C37.3690476,22.172619 38.4940476,22.7440476 39.3392857,23.3035714 C40.1845238,23.8630952 41.2857143,24.6428571 42.6428571,25.6428571 C46.6904762,28.5714286 52.6190476,32.6785714 60.4285714,37.9642857 C61.7857143,38.8928571 62.9761905,39.9285714 64,41.0714286 L64,41.0714286 Z M64,51.5714286 C64,49.6904762 63.4166667,47.8928571 62.25,46.1785714 C61.0833333,44.4642857 59.6309524,43 57.8928571,41.7857143 C48.9404762,35.5714286 43.3690476,31.702381 41.1785714,30.1785714 C40.9404762,30.0119048 40.4345238,29.6488095 39.6607143,29.0892857 C38.8869048,28.5297619 38.2440476,28.077381 37.7321429,27.7321429 C37.2202381,27.3869048 36.6011905,27 35.875,26.5714286 C35.1488095,26.1428571 34.4642857,25.8214286 33.8214286,25.6071429 C33.1785714,25.3928571 32.5833333,25.2857143 32.0357143,25.2857143 L32,25.2857143 L31.9642857,25.2857143 C31.4166667,25.2857143 30.8214286,25.3928571 30.1785714,25.6071429 C29.5357143,25.8214286 28.8511905,26.1428571 28.125,26.5714286 C27.3988095,27 26.7797619,27.3869048 26.2678571,27.7321429 C25.7559524,28.077381 25.1130952,28.5297619 24.3392857,29.0892857 C23.5654762,29.6488095 23.0595238,30.0119048 22.8214286,30.1785714 C20.6547619,31.702381 17.5357143,33.875 13.4642857,36.6964286 C9.39285714,39.5178571 6.95238095,41.2142857 6.14285714,41.7857143 C4.66666667,42.7857143 3.27380952,44.1607143 1.96428571,45.9107143 C0.654761905,47.6607143 0,49.2857143 0,50.7857143 C0,52.6428571 0.494047619,54.1904762 1.48214286,55.4285714 C2.4702381,56.6666667 3.88095238,57.2857143 5.71428571,57.2857143 L58.2857143,57.2857143 C59.8333333,57.2857143 61.172619,56.7261905 62.3035714,55.6071429 C63.4345238,54.4880952 64,53.1428571 64,51.5714286 L64,51.5714286 Z" transform="translate(32.000000, 32.142857) scale(1, -1) translate(-32.000000, -32.142857) "></path>
    </g>
</svg>
