<?xml version="1.0" encoding="UTF-8" standalone="no"?>
<svg id="experience" viewBox="0 0 64 64" version="1.1" xmlns="http://www.w3.org/2000/svg" xmlns:xlink="http://www.w3.org/1999/xlink">
    <g stroke="none" stroke-width="1" fill="#000000" fill-rule="evenodd">
        <path d="M62,53.3928571 C62.2380952,53.1547619 62.3571429,52.8809524 62.3571429,52.5714286 C62.3571429,52.2619048 62.2380952,51.9880952 62,51.75 L56.9642857,46.7142857 C56.297619,46.047619 55.4880952,45.7142857 54.5357143,45.7142857 L6.53571429,45.7142857 C5.91666667,45.7142857 5.38095238,45.9404762 4.92857143,46.3928571 C4.47619048,46.8452381 4.25,47.3809524 4.25,48 L4.25,57.1428571 C4.25,57.7619048 4.47619048,58.297619 4.92857143,58.75 C5.38095238,59.202381 5.91666667,59.4285714 6.53571429,59.4285714 L27.1071429,59.4285714 L27.1071429,61.7142857 C27.1071429,62.3333333 27.3333333,62.8690476 27.7857143,63.3214286 C28.2380952,63.7738095 28.7738095,64 29.3928571,64 L33.9642857,64 C34.5833333,64 35.1190476,63.7738095 35.5714286,63.3214286 C36.0238095,62.8690476 36.25,62.3333333 36.25,61.7142857 L36.25,59.4285714 L54.5357143,59.4285714 C55.4880952,59.4285714 56.297619,59.0952381 56.9642857,58.4285714 L62,53.3928571 Z M27.1071429,20.5714286 L36.25,20.5714286 L36.25,2.28571429 C36.25,1.66666667 36.0238095,1.13095238 35.5714286,0.678571429 C35.1190476,0.226190476 34.5833333,0 33.9642857,0 L29.3928571,0 C28.7738095,0 28.2380952,0.226190476 27.7857143,0.678571429 C27.3333333,1.13095238 27.1071429,1.66666667 27.1071429,2.28571429 L27.1071429,20.5714286 L27.1071429,20.5714286 Z M56.8214286,36.5714286 C57.4404762,36.5714286 57.9761905,36.3452381 58.4285714,35.8928571 C58.8809524,35.4404762 59.1071429,34.9047619 59.1071429,34.2857143 L59.1071429,25.1428571 C59.1071429,24.5238095 58.8809524,23.9880952 58.4285714,23.5357143 C57.9761905,23.0833333 57.4404762,22.8571429 56.8214286,22.8571429 L8.82142857,22.8571429 C7.86904762,22.8571429 7.05952381,23.1904762 6.39285714,23.8571429 L1.35714286,28.8928571 C1.11904762,29.1309524 1,29.4047619 1,29.7142857 C1,30.0238095 1.11904762,30.297619 1.35714286,30.5357143 L6.39285714,35.5714286 C7.05952381,36.2380952 7.86904762,36.5714286 8.82142857,36.5714286 L27.1071429,36.5714286 L27.1071429,43.4285714 L36.25,43.4285714 L36.25,36.5714286 L56.8214286,36.5714286 L56.8214286,36.5714286 Z" transform="translate(31.678571, 32.000000) scale(1, -1) translate(-31.678571, -32.000000)"></path>
    </g>
</svg>
