<svg class="icon-hobbies" viewBox="0 0 64 64" version="1.1" xmlns="http://www.w3.org/2000/svg" xmlns:xlink="http://www.w3.org/1999/xlink">
    <g stroke="none" stroke-width="1" fill="#000000" fill-rule="evenodd">
        <path d="M51,40.8928571 C52.4285714,40.8928571 53.702381,40.6190476 54.8214286,40.0714286 C58.1785714,38.5714286 59.8571429,35.8809524 59.8571429,32 L59.8571429,25.6785714 C59.8571429,23.4404762 59.5833333,21.2261905 59.0357143,19.0357143 L56,6.92857143 C55.5,4.88095238 54.422619,3.21428571 52.7678571,1.92857143 C51.1130952,0.642857143 49.2380952,0 47.1428571,0 L23.2857143,0 C20.7619048,0 18.6071429,0.892857143 16.8214286,2.67857143 C15.0357143,4.46428571 14.1428571,6.61904762 14.1428571,9.14285714 L14.1428571,23.4642857 L5.60714286,45.8928571 C5.20238095,46.9642857 5,48.047619 5,49.1428571 C5,51.6666667 5.89285714,53.8214286 7.67857143,55.6071429 C9.46428571,57.3928571 11.6190476,58.2857143 14.1428571,58.2857143 C16.047619,58.2857143 17.7797619,57.7440476 19.3392857,56.6607143 C20.8988095,55.577381 22.0119048,54.1547619 22.6785714,52.3928571 L23.2857143,50.8214286 L23.2857143,54.8571429 C23.2857143,57.3809524 24.1785714,59.5357143 25.9642857,61.3214286 C27.75,63.1071429 29.9047619,64 32.4285714,64 C34.952381,64 37.1071429,63.1071429 38.8928571,61.3214286 C40.6785714,59.5357143 41.5714286,57.3809524 41.5714286,54.8571429 L41.5714286,45.5357143 C42.2142857,45.6547619 42.7857143,45.7142857 43.2857143,45.7142857 C44.9285714,45.7142857 46.4464286,45.2797619 47.8392857,44.4107143 C49.2321429,43.5416667 50.2857143,42.3690476 51,40.8928571 L51,40.8928571 Z M43.2857143,41.1428571 C42.5,41.1428571 41.7797619,40.9285714 41.125,40.5 C40.4702381,40.0714286 39.9761905,39.5 39.6428571,38.7857143 L37,32.9642857 L34.4642857,27.4285714 L36.4285714,27.4285714 C37.6190476,27.4285714 38.6904762,27.0535714 39.6428571,26.3035714 C40.5952381,25.5535714 41.1904762,24.5952381 41.4285714,23.4285714 L46.9285714,35.5 C47.1666667,35.9761905 47.2857143,36.5238095 47.2857143,37.1428571 C47.2857143,38.2380952 46.8928571,39.1785714 46.1071429,39.9642857 C45.3214286,40.75 44.3809524,41.1428571 43.2857143,41.1428571 L43.2857143,41.1428571 Z M51.1785714,36.3214286 C50.6547619,36.3214286 50.172619,36.2261905 49.7321429,36.0357143 C49.2916667,35.8452381 48.9464286,35.6547619 48.6964286,35.4642857 C48.4464286,35.2738095 48.1666667,34.922619 47.8571429,34.4107143 C47.547619,33.8988095 47.3452381,33.5357143 47.25,33.3214286 C47.1547619,33.1071429 46.952381,32.6666667 46.6428571,32 L41.9285714,21.6428571 C41.6904762,21.1666667 41.5714286,20.6190476 41.5714286,20 C41.5714286,18.9047619 41.9642857,17.9642857 42.75,17.1785714 C43.5357143,16.3928571 44.4761905,16 45.5714286,16 C46.3571429,16 47.077381,16.2142857 47.7321429,16.6428571 C48.3869048,17.0714286 48.8809524,17.6428571 49.2142857,18.3571429 L54.9285714,30.9285714 C55.1428571,31.3571429 55.25,31.8095238 55.25,32.2857143 C55.25,33.4761905 54.8690476,34.4464286 54.1071429,35.1964286 C53.3452381,35.9464286 52.3690476,36.3214286 51.1785714,36.3214286 L51.1785714,36.3214286 Z M9.57142857,49.1428571 C9.57142857,48.6190476 9.66666667,48.0714286 9.85714286,47.5 L18.7142857,24.2857143 L18.7142857,21.8214286 L22.3571429,25.7857143 C23.3809524,26.8809524 24.6428571,27.4285714 26.1428571,27.4285714 L33.2142857,27.4285714 L37,35.75 L37,54.8571429 C37,56.1190476 36.5535714,57.1964286 35.6607143,58.0892857 C34.7678571,58.9821429 33.6904762,59.4285714 32.4285714,59.4285714 C31.1666667,59.4285714 30.0892857,58.9821429 29.1964286,58.0892857 C28.3035714,57.1964286 27.8571429,56.1190476 27.8571429,54.8571429 L27.8571429,32 L25.5714286,32 L18.4285714,50.7857143 C18.0952381,51.6666667 17.5357143,52.375 16.75,52.9107143 C15.9642857,53.4464286 15.0952381,53.7142857 14.1428571,53.7142857 C12.8809524,53.7142857 11.8035714,53.2678571 10.9107143,52.375 C10.0178571,51.4821429 9.57142857,50.4047619 9.57142857,49.1428571 L9.57142857,49.1428571 Z M47.1428571,4.57142857 C48.1904762,4.57142857 49.125,4.89285714 49.9464286,5.53571429 C50.7678571,6.17857143 51.3095238,7.01190476 51.5714286,8.03571429 L54.6071429,20.1428571 C55.0595238,21.8809524 55.2857143,23.7261905 55.2857143,25.6785714 L55.2857143,28.9285714 L50.25,17.8571429 C49.8452381,16.952381 49.2142857,16.2261905 48.3571429,15.6785714 C47.5,15.1309524 46.5714286,14.8571429 45.5714286,14.8571429 C44.3095238,14.8571429 43.1964286,15.2678571 42.2321429,16.0892857 C41.2678571,16.9107143 40.6904762,17.9404762 40.5,19.1785714 C39.452381,17.8214286 38.0952381,17.1428571 36.4285714,17.1428571 L29,17.1428571 L29,18.2857143 L36.4285714,18.2857143 C37.5238095,18.2857143 38.4880952,18.6785714 39.3214286,19.4642857 C40.1547619,20.25 40.5714286,21.1904762 40.5714286,22.2857143 C40.5714286,23.3809524 40.202381,24.3214286 39.4642857,25.1071429 C38.7261905,25.8928571 37.8095238,26.2857143 36.7142857,26.2857143 L26.1428571,26.2857143 C24.9761905,26.2857143 24,25.8571429 23.2142857,25 L18.7142857,20.1428571 L18.7142857,9.14285714 C18.7142857,7.88095238 19.1607143,6.80357143 20.0535714,5.91071429 C20.9464286,5.01785714 22.0238095,4.57142857 23.2857143,4.57142857 L47.1428571,4.57142857 L47.1428571,4.57142857 Z" transform="translate(32.428571, 32.000000) scale(1, -1) translate(-32.428571, -32.000000)"></path>
    </g>
</svg>
