<?xml version="1.0" encoding="UTF-8" standalone="no"?>
<svg id="icon-languages" viewBox="0 0 64 64" version="1.1" xmlns="http://www.w3.org/2000/svg" xmlns:xlink="http://www.w3.org/1999/xlink">
    <g stroke="none" stroke-width="1" fill="#000000" fill-rule="evenodd">
        <path d="M50.2857143,39.0039683 C50.2857143,35.6944444 49.1666667,32.6349206 46.9285714,29.8253968 C44.6904762,27.015873 41.6369048,24.7956349 37.7678571,23.1646825 C33.8988095,21.5337302 29.6904762,20.718254 25.1428571,20.718254 C23.0952381,20.718254 21,20.9087302 18.8571429,21.2896825 C15.9047619,19.1944444 12.5952381,17.6706349 8.92857143,16.718254 C8.07142857,16.5039683 7.04761905,16.3134921 5.85714286,16.1468254 L5.75,16.1468254 C5.48809524,16.1468254 5.24404762,16.2420635 5.01785714,16.4325397 C4.79166667,16.6230159 4.6547619,16.8730159 4.60714286,17.1825397 C4.58333333,17.2539683 4.57142857,17.3313492 4.57142857,17.4146825 C4.57142857,17.4980159 4.57738095,17.5753968 4.58928571,17.6468254 C4.60119048,17.718254 4.625,17.7896825 4.66071429,17.8611111 L4.75,18.0396825 C4.75,18.0396825 4.79166667,18.1051587 4.875,18.2361111 C4.95833333,18.3670635 5.00595238,18.4265873 5.01785714,18.4146825 C5.0297619,18.4027778 5.08333333,18.4623016 5.17857143,18.593254 C5.27380952,18.7242063 5.32142857,18.7777778 5.32142857,18.7539683 C5.44047619,18.8968254 5.71428571,19.1944444 6.14285714,19.6468254 C6.57142857,20.0992063 6.88095238,20.4503968 7.07142857,20.7003968 C7.26190476,20.9503968 7.5297619,21.2956349 7.875,21.7361111 C8.2202381,22.1765873 8.51785714,22.6349206 8.76785714,23.1111111 C9.01785714,23.5873016 9.26190476,24.1111111 9.5,24.6825397 C6.54761905,26.3968254 4.22619048,28.5039683 2.53571429,31.0039683 C0.845238095,33.5039683 0,36.1706349 0,39.0039683 C0,42.3134921 1.11904762,45.3730159 3.35714286,48.1825397 C5.5952381,50.9920635 8.64880952,53.2123016 12.5178571,54.843254 C16.3869048,56.4742063 20.5952381,57.2896825 25.1428571,57.2896825 C29.6904762,57.2896825 33.8988095,56.4742063 37.7678571,54.843254 C41.6369048,53.2123016 44.6904762,50.9920635 46.9285714,48.1825397 C49.1666667,45.3730159 50.2857143,42.3134921 50.2857143,39.0039683 L50.2857143,39.0039683 Z M64,29.8611111 C64,27.0039683 63.1547619,24.3313492 61.4642857,21.843254 C59.7738095,19.3551587 57.452381,17.2539683 54.5,15.5396825 C54.7380952,14.968254 54.9821429,14.4444444 55.2321429,13.968254 C55.4821429,13.4920635 55.7797619,13.0337302 56.125,12.593254 C56.4702381,12.1527778 56.7380952,11.8075397 56.9285714,11.5575397 C57.1190476,11.3075397 57.4285714,10.9563492 57.8571429,10.5039683 C58.2857143,10.0515873 58.5595238,9.75396825 58.6785714,9.61111111 C58.702381,9.58730159 58.75,9.53373016 58.8214286,9.45039683 C58.8928571,9.36706349 58.9464286,9.30753968 58.9821429,9.2718254 C59.0178571,9.23611111 59.0654762,9.1765873 59.125,9.09325397 C59.1845238,9.00992063 59.2261905,8.94444444 59.25,8.8968254 L59.3392857,8.71825397 C59.3392857,8.71825397 59.3630952,8.6468254 59.4107143,8.50396825 C59.4583333,8.36111111 59.4642857,8.28373016 59.4285714,8.2718254 C59.3928571,8.25992063 59.3809524,8.18253968 59.3928571,8.03968254 C59.3214286,7.70634921 59.1666667,7.44444444 58.9285714,7.25396825 C58.6904762,7.06349206 58.4285714,6.98015873 58.1428571,7.00396825 C56.952381,7.17063492 55.9285714,7.36111111 55.0714286,7.57539683 C51.4047619,8.52777778 48.0952381,10.0515873 45.1428571,12.1468254 C43,11.765873 40.9047619,11.5753968 38.8571429,11.5753968 C32.4047619,11.5753968 26.7857143,13.1468254 22,16.2896825 C23.3809524,16.1944444 24.4285714,16.1468254 25.1428571,16.1468254 C28.9761905,16.1468254 32.6547619,16.6825397 36.1785714,17.7539683 C39.702381,18.8253968 42.8452381,20.3611111 45.6071429,22.3611111 C48.5833333,24.5515873 50.8690476,27.0753968 52.4642857,29.9325397 C54.0595238,32.7896825 54.8571429,35.8134921 54.8571429,39.0039683 C54.8571429,40.8373016 54.5833333,42.6468254 54.0357143,44.4325397 C57.1071429,42.7420635 59.5357143,40.6230159 61.3214286,38.0753968 C63.1071429,35.5277778 64,32.7896825 64,29.8611111 L64,29.8611111 Z" transform="translate(32.000000, 32.144841) scale(1, -1) translate(-32.000000, -32.144841)"></path>
    </g>
</svg>
