<?xml version="1.0" encoding="UTF-8" standalone="no"?>
<svg id="icon-location" viewBox="0 0 64 64" version="1.1" xmlns="http://www.w3.org/2000/svg" xmlns:xlink="http://www.w3.org/1999/xlink">
    <g stroke="none" stroke-width="1" fill="#000000" fill-rule="evenodd">
        <path d="M43,42.6666667 C43,45.6111111 41.9583333,48.125 39.875,50.2083333 C37.7916667,52.2916667 35.2777778,53.3333333 32.3333333,53.3333333 C29.3888889,53.3333333 26.875,52.2916667 24.7916667,50.2083333 C22.7083333,48.125 21.6666667,45.6111111 21.6666667,42.6666667 C21.6666667,39.7222222 22.7083333,37.2083333 24.7916667,35.125 C26.875,33.0416667 29.3888889,32 32.3333333,32 C35.2777778,32 37.7916667,33.0416667 39.875,35.125 C41.9583333,37.2083333 43,39.7222222 43,42.6666667 L43,42.6666667 Z M53.6666667,42.6666667 C53.6666667,39.6388889 53.2083333,37.1527778 52.2916667,35.2083333 L37.125,2.95833333 C36.6805556,2.04166667 36.0208333,1.31944444 35.1458333,0.791666667 C34.2708333,0.263888889 33.3333333,0 32.3333333,0 C31.3333333,0 30.3958333,0.263888889 29.5208333,0.791666667 C28.6458333,1.31944444 28,2.04166667 27.5833333,2.95833333 L12.375,35.2083333 C11.4583333,37.1527778 11,39.6388889 11,42.6666667 C11,48.5555556 13.0833333,53.5833333 17.25,57.75 C21.4166667,61.9166667 26.4444444,64 32.3333333,64 C38.2222222,64 43.25,61.9166667 47.4166667,57.75 C51.5833333,53.5833333 53.6666667,48.5555556 53.6666667,42.6666667 L53.6666667,42.6666667 Z" transform="translate(32.333333, 32.000000) scale(1, -1) translate(-32.333333, -32.000000) "></path>
    </g>
</svg>
