<?xml version="1.0" encoding="UTF-8" standalone="no"?>
<svg id="icon-misc" viewBox="0 0 64 64" version="1.1" xmlns="http://www.w3.org/2000/svg" xmlns:xlink="http://www.w3.org/1999/xlink">
    <g stroke="none" stroke-width="1" fill="#000000" fill-rule="evenodd">
        <path d="M53.5148515,48.6336634 L41.950495,37.0693069 L41.950495,4.43564356 C41.950495,3.22112211 41.5148515,2.17821782 40.6435644,1.30693069 C39.7722772,0.435643564 38.7293729,0 37.5148515,0 C36.30033,0 35.2574257,0.435643564 34.3861386,1.30693069 C33.5148515,2.17821782 33.0792079,3.22112211 33.0792079,4.43564356 L33.0792079,19.6435644 L30.5445545,19.6435644 L30.5445545,4.43564356 C30.5445545,3.22112211 30.1089109,2.17821782 29.2376238,1.30693069 C28.3663366,0.435643564 27.3234323,0 26.1089109,0 C24.8943894,0 23.8514851,0.435643564 22.980198,1.30693069 C22.1089109,2.17821782 21.6732673,3.22112211 21.6732673,4.43564356 L21.6732673,37.0693069 L10.1089109,48.6336634 C9.36963696,49.3729373 9,50.2706271 9,51.3267327 C9,52.3828383 9.36963696,53.2805281 10.1089109,54.019802 C10.8481848,54.7590759 11.7458746,55.1287129 12.8019802,55.1287129 C13.8580858,55.1287129 14.7557756,54.7590759 15.4950495,54.019802 L24.5247525,44.990099 L39.0990099,44.990099 L48.1287129,54.019802 C48.8679868,54.7590759 49.7656766,55.1287129 50.8217822,55.1287129 C51.8778878,55.1287129 52.7755776,54.7590759 53.5148515,54.019802 C54.2541254,53.2805281 54.6237624,52.3828383 54.6237624,51.3267327 C54.6237624,50.2706271 54.2541254,49.3729373 53.5148515,48.6336634 L53.5148515,48.6336634 Z M40.6831683,55.1287129 C40.6831683,52.6732673 39.8184818,50.5808581 38.0891089,48.8514851 C36.359736,47.1221122 34.2673267,46.2574257 31.8118812,46.2574257 C29.3564356,46.2574257 27.2640264,47.1221122 25.5346535,48.8514851 C23.8052805,50.5808581 22.9405941,52.6732673 22.9405941,55.1287129 C22.9405941,57.5841584 23.8052805,59.6765677 25.5346535,61.4059406 C27.2640264,63.1353135 29.3564356,64 31.8118812,64 C34.2673267,64 36.359736,63.1353135 38.0891089,61.4059406 C39.8184818,59.6765677 40.6831683,57.5841584 40.6831683,55.1287129 L40.6831683,55.1287129 Z" transform="translate(31.811881, 32.000000) scale(1, -1) translate(-31.811881, -32.000000)"></path>
    </g>
</svg>
