<?xml version="1.0" encoding="UTF-8" standalone="no"?>
<svg id="icon-person" viewBox="0 0 64 64" version="1.1" xmlns="http://www.w3.org/2000/svg" xmlns:xlink="http://www.w3.org/1999/xlink">
    <g stroke="none" stroke-width="1" fill="#000000" fill-rule="evenodd">
        <path d="M61.6666667,10.7916667 C61.6666667,7.45833333 60.6527778,4.82638889 58.625,2.89583333 C56.5972222,0.965277778 53.9027778,0 50.5416667,0 L14.125,0 C10.7638889,0 8.06944444,0.965277778 6.04166667,2.89583333 C4.01388889,4.82638889 3,7.45833333 3,10.7916667 C3,12.2638889 3.04861111,13.7013889 3.14583333,15.1041667 C3.24305556,16.5069444 3.4375,18.0208333 3.72916667,19.6458333 C4.02083333,21.2708333 4.38888889,22.7777778 4.83333333,24.1666667 C5.27777778,25.5555556 5.875,26.9097222 6.625,28.2291667 C7.375,29.5486111 8.23611111,30.6736111 9.20833333,31.6041667 C10.1805556,32.5347222 11.3680556,33.2777778 12.7708333,33.8333333 C14.1736111,34.3888889 15.7222222,34.6666667 17.4166667,34.6666667 C17.6666667,34.6666667 18.25,34.3680556 19.1666667,33.7708333 C20.0833333,33.1736111 21.1180556,32.5069444 22.2708333,31.7708333 C23.4236111,31.0347222 24.9236111,30.3680556 26.7708333,29.7708333 C28.6180556,29.1736111 30.4722222,28.875 32.3333333,28.875 C34.1944444,28.875 36.0486111,29.1736111 37.8958333,29.7708333 C39.7430556,30.3680556 41.2430556,31.0347222 42.3958333,31.7708333 C43.5486111,32.5069444 44.5833333,33.1736111 45.5,33.7708333 C46.4166667,34.3680556 47,34.6666667 47.25,34.6666667 C48.9444444,34.6666667 50.4930556,34.3888889 51.8958333,33.8333333 C53.2986111,33.2777778 54.4861111,32.5347222 55.4583333,31.6041667 C56.4305556,30.6736111 57.2916667,29.5486111 58.0416667,28.2291667 C58.7916667,26.9097222 59.3888889,25.5555556 59.8333333,24.1666667 C60.2777778,22.7777778 60.6458333,21.2708333 60.9375,19.6458333 C61.2291667,18.0208333 61.4236111,16.5069444 61.5208333,15.1041667 C61.6180556,13.7013889 61.6666667,12.2638889 61.6666667,10.7916667 L61.6666667,10.7916667 Z M48.3333333,48 C48.3333333,43.5833333 46.7708333,39.8125 43.6458333,36.6875 C40.5208333,33.5625 36.75,32 32.3333333,32 C27.9166667,32 24.1458333,33.5625 21.0208333,36.6875 C17.8958333,39.8125 16.3333333,43.5833333 16.3333333,48 C16.3333333,52.4166667 17.8958333,56.1875 21.0208333,59.3125 C24.1458333,62.4375 27.9166667,64 32.3333333,64 C36.75,64 40.5208333,62.4375 43.6458333,59.3125 C46.7708333,56.1875 48.3333333,52.4166667 48.3333333,48 L48.3333333,48 Z" transform="translate(32.333333, 32.000000) scale(1, -1) translate(-32.333333, -32.000000) "></path>
    </g>
</svg>
