<svg class="icon-skills" viewBox="0 0 64 64" version="1.1" xmlns="http://www.w3.org/2000/svg" xmlns:xlink="http://www.w3.org/1999/xlink">
    <g stroke="none" stroke-width="1" fill="#000000" fill-rule="evenodd">
        <path d="M49.041806,47.1538462 C49.5033445,46.6410256 49.5930881,46.0769231 49.3110368,45.4615385 L28.541806,0.961538462 C28.2084727,0.320512821 27.6700111,0 26.9264214,0 C26.8238573,0 26.6443701,0.0256410256 26.3879599,0.0769230769 C25.9520624,0.205128205 25.6251394,0.448717949 25.4071906,0.807692308 C25.1892419,1.16666667 25.1315496,1.55128205 25.2341137,1.96153846 L32.8110368,33.0384615 L17.1956522,29.1538462 C17.0930881,29.1282051 16.9392419,29.1153846 16.7341137,29.1153846 C16.2725753,29.1153846 15.8751394,29.2564103 15.541806,29.5384615 C15.0802676,29.9230769 14.9136009,30.4230769 15.041806,31.0384615 L22.7725753,62.7692308 C22.8751394,63.1282051 23.0802676,63.4230769 23.3879599,63.6538462 C23.6956522,63.8846154 24.0546265,64 24.4648829,64 L37.0802676,64 C37.567447,64 37.9777035,63.8397436 38.3110368,63.5192308 C38.6443701,63.1987179 38.8110368,62.8205128 38.8110368,62.3846154 C38.8110368,62.1794872 38.7469342,61.9487179 38.6187291,61.6923077 L32.041806,43.8846154 L47.2725753,47.6538462 C47.4777035,47.7051282 47.6315496,47.7307692 47.7341137,47.7307692 C48.2212932,47.7307692 48.6571906,47.5384615 49.041806,47.1538462 L49.041806,47.1538462 Z" transform="translate(32.235757, 32.000000) scale(1, -1) translate(-32.235757, -32.000000)"></path>
    </g>
</svg>
