<?xml version="1.0" encoding="UTF-8" standalone="no"?>
<svg id="icon-website" viewBox="0 0 64 64" version="1.1" xmlns="http://www.w3.org/2000/svg" xmlns:xlink="http://www.w3.org/1999/xlink">
    <g stroke="none" stroke-width="1" fill="#000000" fill-rule="evenodd">
        <path d="M32,64 C37.8055556,64 43.1597222,62.5694444 48.0625,59.7083333 C52.9652778,56.8472222 56.8472222,52.9652778 59.7083333,48.0625 C62.5694444,43.1597222 64,37.8055556 64,32 C64,26.1944444 62.5694444,20.8402778 59.7083333,15.9375 C56.8472222,11.0347222 52.9652778,7.15277778 48.0625,4.29166667 C43.1597222,1.43055556 37.8055556,0 32,0 C26.1944444,0 20.8402778,1.43055556 15.9375,4.29166667 C11.0347222,7.15277778 7.15277778,11.0347222 4.29166667,15.9375 C1.43055556,20.8402778 0,26.1944444 0,32 C0,37.8055556 1.43055556,43.1597222 4.29166667,48.0625 C7.15277778,52.9652778 11.0347222,56.8472222 15.9375,59.7083333 C20.8402778,62.5694444 26.1944444,64 32,64 L32,64 Z M43.4166667,42.2916667 C43.3611111,42.2638889 43.2291667,42.1319444 43.0208333,41.8958333 C42.8125,41.6597222 42.625,41.5277778 42.4583333,41.5 C42.5138889,41.5 42.5763889,41.5694444 42.6458333,41.7083333 C42.7152778,41.8472222 42.7847222,42 42.8541667,42.1666667 C42.9236111,42.3333333 42.9722222,42.4305556 43,42.4583333 C43.1666667,42.6527778 43.4722222,42.8611111 43.9166667,43.0833333 C44.3055556,43.25 45.0277778,43.4166667 46.0833333,43.5833333 C47.0277778,43.8055556 47.7361111,43.6527778 48.2083333,43.125 C48.1527778,43.1805556 48.2847222,43.3611111 48.6041667,43.6666667 C48.9236111,43.9722222 49.125,44.1388889 49.2083333,44.1666667 C49.2916667,44.2222222 49.5,44.2847222 49.8333333,44.3541667 C50.1666667,44.4236111 50.375,44.5277778 50.4583333,44.6666667 L50.5416667,45.5833333 C50.2083333,45.5555556 49.9652778,45.6527778 49.8125,45.875 C49.6597222,46.0972222 49.5694444,46.3888889 49.5416667,46.75 C49.5416667,46.6944444 49.4583333,46.5833333 49.2916667,46.4166667 C49.2916667,46.6111111 49.2291667,46.7222222 49.1041667,46.75 C48.9791667,46.7777778 48.8194444,46.7638889 48.625,46.7083333 C48.4305556,46.6527778 48.3055556,46.6388889 48.25,46.6666667 C47.9722222,46.75 47.7638889,46.8541667 47.625,46.9791667 C47.4861111,47.1041667 47.375,47.3333333 47.2916667,47.6666667 C47.2083333,48 47.1527778,48.2083333 47.125,48.2916667 C47.0694444,48.4305556 46.9375,48.5763889 46.7291667,48.7291667 C46.5208333,48.8819444 46.3888889,49.0277778 46.3333333,49.1666667 C46.3055556,49.2222222 46.2708333,49.2986111 46.2291667,49.3958333 C46.1875,49.4930556 46.1458333,49.5833333 46.1041667,49.6666667 C46.0625,49.75 46.0069444,49.8263889 45.9375,49.8958333 C45.8680556,49.9652778 45.7916667,50 45.7083333,50 C45.625,50 45.5277778,49.9305556 45.4166667,49.7916667 C45.3055556,49.6527778 45.2013889,49.5138889 45.1041667,49.375 C45.0069444,49.2361111 44.9444444,49.1666667 44.9166667,49.1666667 C44.8333333,49.2222222 44.75,49.2430556 44.6666667,49.2291667 C44.5833333,49.2152778 44.5208333,49.2013889 44.4791667,49.1875 C44.4375,49.1736111 44.375,49.1319444 44.2916667,49.0625 C44.2083333,48.9930556 44.1388889,48.9444444 44.0833333,48.9166667 C44,48.8611111 43.8819444,48.8194444 43.7291667,48.7916667 C43.5763889,48.7638889 43.4583333,48.7361111 43.375,48.7083333 C43.7916667,48.8472222 43.7777778,49 43.3333333,49.1666667 C43.0555556,49.2777778 42.8333333,49.3194444 42.6666667,49.2916667 C42.9166667,49.4027778 43.0208333,49.5694444 42.9791667,49.7916667 C42.9375,50.0138889 42.8194444,50.2083333 42.625,50.375 L42.8333333,50.375 C42.8055556,50.4861111 42.6875,50.6041667 42.4791667,50.7291667 C42.2708333,50.8541667 42.0277778,50.9722222 41.75,51.0833333 C41.4722222,51.1944444 41.2916667,51.2777778 41.2083333,51.3333333 C40.9861111,51.4722222 40.5138889,51.6041667 39.7916667,51.7291667 C39.0694444,51.8541667 38.6111111,51.8611111 38.4166667,51.75 C38.2777778,51.5833333 38.2152778,51.4375 38.2291667,51.3125 C38.2430556,51.1875 38.2986111,50.9930556 38.3958333,50.7291667 C38.4930556,50.4652778 38.5416667,50.2916667 38.5416667,50.2083333 C38.5694444,50.0416667 38.4930556,49.8611111 38.3125,49.6666667 C38.1319444,49.4722222 38.0416667,49.3055556 38.0416667,49.1666667 C38.0416667,48.9722222 38.2361111,48.7569444 38.625,48.5208333 C39.0138889,48.2847222 39.1527778,47.9861111 39.0416667,47.625 C38.9583333,47.4027778 38.7361111,47.1805556 38.375,46.9583333 C38.0138889,46.7361111 37.7916667,46.5694444 37.7083333,46.4583333 C37.5694444,46.2361111 37.5486111,45.9791667 37.6458333,45.6875 C37.7430556,45.3958333 37.8888889,45.1666667 38.0833333,45 C38.1388889,44.9444444 38.1597222,44.8888889 38.1458333,44.8333333 C38.1319444,44.7777778 38.0833333,44.7152778 38,44.6458333 C37.9166667,44.5763889 37.8402778,44.5208333 37.7708333,44.4791667 C37.7013889,44.4375 37.6111111,44.3888889 37.5,44.3333333 L37.375,44.25 C37.0694444,44.1111111 36.7847222,44.1944444 36.5208333,44.5 C36.2569444,44.8055556 36.0694444,45.1666667 35.9583333,45.5833333 C35.7638889,46.2777778 35.5416667,46.6944444 35.2916667,46.8333333 C34.6527778,47.0555556 34.25,47.0416667 34.0833333,46.7916667 C33.9444444,47.1527778 33.375,47.5138889 32.375,47.875 C31.6805556,48.125 30.875,48.1805556 29.9583333,48.0416667 C30.125,48.0694444 30.125,48.2777778 29.9583333,48.6666667 C29.7638889,49.0833333 29.5,49.25 29.1666667,49.1666667 C29.25,49.3333333 29.3055556,49.5763889 29.3333333,49.8958333 C29.3611111,50.2152778 29.375,50.4027778 29.375,50.4583333 C29.4583333,50.8194444 29.625,51.1388889 29.875,51.4166667 C29.9027778,51.4444444 30,51.5625 30.1666667,51.7708333 C30.3333333,51.9791667 30.4652778,52.1666667 30.5625,52.3333333 C30.6597222,52.5 30.6666667,52.5833333 30.5833333,52.5833333 C31.5555556,52.4722222 32.25,52.625 32.6666667,53.0416667 C32.8055556,53.1805556 32.9652778,53.4166667 33.1458333,53.75 C33.3263889,54.0833333 33.4722222,54.3194444 33.5833333,54.4583333 C33.8333333,54.625 34.0277778,54.7013889 34.1666667,54.6875 C34.3055556,54.6736111 34.5069444,54.5972222 34.7708333,54.4583333 C35.0347222,54.3194444 35.2361111,54.25 35.375,54.25 C35.7638889,54.2222222 35.9791667,54.375 36.0208333,54.7083333 C36.0625,55.0416667 35.9583333,55.3194444 35.7083333,55.5416667 C36.0416667,55.5138889 36.0833333,55.75 35.8333333,56.25 C35.6944444,56.4444444 35.5833333,56.5694444 35.5,56.625 C35.1666667,56.7361111 34.7916667,56.6666667 34.375,56.4166667 C34.1527778,56.3055556 34.1805556,56.1944444 34.4583333,56.0833333 C34.4305556,56.1111111 34.2986111,55.9652778 34.0625,55.6458333 C33.8263889,55.3263889 33.5972222,55.0833333 33.375,54.9166667 C33.1527778,54.75 32.9305556,54.8194444 32.7083333,55.125 C32.6805556,55.1527778 32.6041667,55.3402778 32.4791667,55.6875 C32.3541667,56.0347222 32.2222222,56.2222222 32.0833333,56.25 C31.8611111,56.25 31.6388889,56.0416667 31.4166667,55.625 C31.5,55.8472222 31.3472222,56.0555556 30.9583333,56.25 C30.5694444,56.4444444 30.2361111,56.5555556 29.9583333,56.5833333 C30.4861111,56.9166667 30.375,57.2916667 29.625,57.7083333 C29.4305556,57.8194444 29.1458333,57.8888889 28.7708333,57.9166667 C28.3958333,57.9444444 28.125,57.8888889 27.9583333,57.75 C27.8194444,57.5555556 27.7430556,57.3958333 27.7291667,57.2708333 C27.7152778,57.1458333 27.7847222,57.0347222 27.9375,56.9375 C28.0902778,56.8402778 28.2361111,56.7638889 28.375,56.7083333 C28.5138889,56.6527778 28.6736111,56.5972222 28.8541667,56.5416667 C29.0347222,56.4861111 29.1527778,56.4444444 29.2083333,56.4166667 C29.5972222,56.1388889 29.7083333,55.9444444 29.5416667,55.8333333 C29.4861111,55.8055556 29.3680556,55.7569444 29.1875,55.6875 C29.0069444,55.6180556 28.8472222,55.5555556 28.7083333,55.5 C28.5694444,55.4444444 28.4861111,55.3888889 28.4583333,55.3333333 C28.375,55.2222222 28.375,55.0277778 28.4583333,54.75 C28.5416667,54.4722222 28.5138889,54.2777778 28.375,54.1666667 C28.2361111,54.3055556 28.1111111,54.5486111 28,54.8958333 C27.8888889,55.2430556 27.7916667,55.4722222 27.7083333,55.5833333 C27.9027778,55.3333333 27.5555556,55.25 26.6666667,55.3333333 L26.25,55.375 C26.1388889,55.375 25.9166667,55.3472222 25.5833333,55.2916667 C25.25,55.2361111 24.9652778,55.2222222 24.7291667,55.25 C24.4930556,55.2777778 24.3055556,55.3888889 24.1666667,55.5833333 C24.0555556,55.8055556 24.0555556,56.0833333 24.1666667,56.4166667 C24.1944444,56.5277778 24.25,56.5555556 24.3333333,56.5 C24.2222222,56.5833333 24.0694444,56.7152778 23.875,56.8958333 C23.6805556,57.0763889 23.5416667,57.1944444 23.4583333,57.25 C22.1805556,56.8333333 20.875,56.2638889 19.5416667,55.5416667 C19.7083333,55.5138889 19.875,55.5277778 20.0416667,55.5833333 C20.1805556,55.6388889 20.3611111,55.7291667 20.5833333,55.8541667 C20.8055556,55.9791667 20.9444444,56.0555556 21,56.0833333 C21.9444444,56.4722222 22.5277778,56.5694444 22.75,56.375 L22.9583333,56.5833333 C23.3472222,56.1388889 23.625,55.7916667 23.7916667,55.5416667 C23.5972222,55.6527778 23.1805556,55.6666667 22.5416667,55.5833333 C21.9861111,55.4166667 21.6805556,55.25 21.625,55.0833333 C21.8194444,54.75 21.8888889,54.5 21.8333333,54.3333333 C21.7222222,54.4166667 21.5625,54.5555556 21.3541667,54.75 C21.1458333,54.9444444 20.9444444,55.0972222 20.75,55.2083333 C20.5555556,55.3194444 20.3472222,55.3888889 20.125,55.4166667 C19.6805556,55.4166667 19.375,55.4027778 19.2083333,55.375 C15.1527778,53.1527778 11.8888889,50.0694444 9.41666667,46.125 C9.61111111,45.9305556 9.77777778,45.8194444 9.91666667,45.7916667 C10.0277778,45.7638889 10.0972222,45.6388889 10.125,45.4166667 C10.1527778,45.1944444 10.1875,45.0416667 10.2291667,44.9583333 C10.2708333,44.875 10.4305556,44.9166667 10.7083333,45.0833333 C10.9583333,44.8611111 11,44.5972222 10.8333333,44.2916667 C10.8611111,44.3194444 11.4722222,43.9444444 12.6666667,43.1666667 C13.1944444,42.6944444 13.4861111,42.4027778 13.5416667,42.2916667 C13.625,41.9861111 13.4861111,41.7361111 13.125,41.5416667 C13.0972222,41.5972222 12.9722222,41.7222222 12.75,41.9166667 C12.5277778,42.1111111 12.4027778,42.1666667 12.375,42.0833333 C12.2916667,41.9444444 12.2986111,41.6875 12.3958333,41.3125 C12.4930556,40.9375 12.6388889,40.7638889 12.8333333,40.7916667 C12.6388889,40.7916667 12.5069444,40.5694444 12.4375,40.125 C12.3680556,39.6805556 12.3333333,39.1875 12.3333333,38.6458333 C12.3333333,38.1041667 12.3194444,37.7777778 12.2916667,37.6666667 L12.375,37.625 C12.2916667,37.2916667 12.3680556,36.8125 12.6041667,36.1875 C12.8402778,35.5625 13.1388889,35.2916667 13.5,35.375 C13.1388889,35.2916667 13.4166667,34.6944444 14.3333333,33.5833333 C14.5,33.3611111 14.6111111,33.2361111 14.6666667,33.2083333 C14.75,33.1527778 14.9166667,33.0486111 15.1666667,32.8958333 C15.4166667,32.7430556 15.625,32.6041667 15.7916667,32.4791667 C15.9583333,32.3541667 16.0972222,32.2083333 16.2083333,32.0416667 C16.3194444,31.9027778 16.4583333,31.5902778 16.625,31.1041667 C16.7916667,30.6180556 16.9861111,30.2916667 17.2083333,30.125 C17.1527778,29.9583333 17.2847222,29.6805556 17.6041667,29.2916667 C17.9236111,28.9027778 18.0694444,28.5833333 18.0416667,28.3333333 C18.0138889,28.3333333 17.9791667,28.3194444 17.9375,28.2916667 C17.8958333,28.2638889 17.8611111,28.25 17.8333333,28.25 C17.9166667,28.0555556 18.1319444,27.8611111 18.4791667,27.6666667 C18.8263889,27.4722222 19.0416667,27.2916667 19.125,27.125 C19.1527778,27.0416667 19.1805556,26.9027778 19.2083333,26.7083333 C19.2361111,26.5138889 19.2777778,26.3611111 19.3333333,26.25 C19.3888889,26.1388889 19.5,26.1111111 19.6666667,26.1666667 C19.7222222,26.7222222 19.3888889,27.5833333 18.6666667,28.75 C18.25,29.4444444 18.0138889,29.8472222 17.9583333,29.9583333 C17.875,30.0972222 17.7986111,30.3125 17.7291667,30.6041667 C17.6597222,30.8958333 17.5972222,31.0972222 17.5416667,31.2083333 C17.5972222,31.2083333 17.6805556,31.1875 17.7916667,31.1458333 C17.9027778,31.1041667 18.0208333,31.0555556 18.1458333,31 C18.2708333,30.9444444 18.375,30.8888889 18.4583333,30.8333333 C18.5416667,30.7777778 18.5694444,30.7361111 18.5416667,30.7083333 C18.4583333,30.5138889 18.4861111,30.2708333 18.625,29.9791667 C18.7638889,29.6875 18.9305556,29.4305556 19.125,29.2083333 C19.3194444,28.9861111 19.5555556,28.7222222 19.8333333,28.4166667 C20.1111111,28.1111111 20.2777778,27.9305556 20.3333333,27.875 C20.5,27.7083333 20.6944444,27.4375 20.9166667,27.0625 C21.1388889,26.6875 21.1388889,26.5 20.9166667,26.5 C21.1666667,26.5 21.4444444,26.3611111 21.75,26.0833333 C22.0555556,25.8055556 22.2916667,25.5277778 22.4583333,25.25 C22.5972222,25.0277778 22.7083333,24.6666667 22.7916667,24.1666667 C22.875,23.6666667 22.9444444,23.3333333 23,23.1666667 C23.0555556,22.9722222 23.1736111,22.7847222 23.3541667,22.6041667 C23.5347222,22.4236111 23.7083333,22.2916667 23.875,22.2083333 L24.5416667,21.875 C24.5416667,21.875 24.7222222,21.7777778 25.0833333,21.5833333 C25.2222222,21.5277778 25.4791667,21.3819444 25.8541667,21.1458333 C26.2291667,20.9097222 26.5277778,20.75 26.75,20.6666667 C27.0277778,20.5555556 27.25,20.5 27.4166667,20.5 C27.5833333,20.5 27.7847222,20.5347222 28.0208333,20.6041667 C28.2569444,20.6736111 28.4444444,20.7222222 28.5833333,20.75 C29,20.8055556 29.4027778,20.5972222 29.7916667,20.125 C30.1805556,19.6527778 30.4722222,19.3611111 30.6666667,19.25 C31.6666667,18.7222222 32.4305556,18.5694444 32.9583333,18.7916667 C32.9027778,18.7638889 32.9097222,18.6597222 32.9791667,18.4791667 C33.0486111,18.2986111 33.1597222,18.0833333 33.3125,17.8333333 C33.4652778,17.5833333 33.5902778,17.3819444 33.6875,17.2291667 C33.7847222,17.0763889 33.8611111,16.9583333 33.9166667,16.875 C34.0555556,16.7083333 34.3055556,16.5 34.6666667,16.25 C35.0277778,16 35.2777778,15.7916667 35.4166667,15.625 C35.5833333,15.7361111 35.6805556,15.8611111 35.7083333,16 C35.625,15.7777778 35.7222222,15.5 36,15.1666667 C36.2777778,14.8333333 36.5277778,14.6944444 36.75,14.75 C37.1388889,14.8333333 37.3333333,15.2777778 37.3333333,16.0833333 C36.4722222,15.6666667 35.7916667,15.9166667 35.2916667,16.8333333 C35.2916667,16.8611111 35.2569444,16.9375 35.1875,17.0625 C35.1180556,17.1875 35.0625,17.3055556 35.0208333,17.4166667 C34.9791667,17.5277778 34.9444444,17.6458333 34.9166667,17.7708333 C34.8888889,17.8958333 34.8888889,18 34.9166667,18.0833333 C34.9444444,18.1666667 35.0138889,18.2083333 35.125,18.2083333 C35.375,18.2083333 35.5138889,18.2569444 35.5416667,18.3541667 C35.5694444,18.4513889 35.5416667,18.625 35.4583333,18.875 C35.375,19.125 35.3194444,19.3055556 35.2916667,19.4166667 C35.2638889,19.6388889 35.1111111,19.9166667 34.8333333,20.25 C34.5555556,20.5833333 34.3888889,20.7916667 34.3333333,20.875 C34.1944444,20.625 33.9722222,20.5138889 33.6666667,20.5416667 C33.3611111,20.5694444 33.1388889,20.6944444 33,20.9166667 C33,20.8888889 32.9791667,20.8125 32.9375,20.6875 C32.8958333,20.5625 32.875,20.4722222 32.875,20.4166667 C32.5138889,20.4166667 32.3055556,20.4305556 32.25,20.4583333 C32.2777778,20.5416667 32.3125,20.7847222 32.3541667,21.1875 C32.3958333,21.5902778 32.4444444,21.9027778 32.5,22.125 C32.5277778,22.2361111 32.6041667,22.4027778 32.7291667,22.625 C32.8541667,22.8472222 32.9583333,23.0486111 33.0416667,23.2291667 C33.125,23.4097222 33.1805556,23.5833333 33.2083333,23.75 C33.2361111,23.9166667 33.1736111,24.0486111 33.0208333,24.1458333 C32.8680556,24.2430556 32.625,24.2777778 32.2916667,24.25 C31.7638889,24.2222222 31.4027778,23.9444444 31.2083333,23.4166667 C31.1805556,23.3333333 31.1388889,23.1875 31.0833333,22.9791667 C31.0277778,22.7708333 30.9583333,22.6111111 30.875,22.5 C30.7916667,22.3888889 30.6666667,22.2916667 30.5,22.2083333 C30.3055556,22.125 29.9722222,22.0972222 29.5,22.125 C29.0277778,22.1527778 28.6944444,22.2222222 28.5,22.3333333 C28.1388889,22.5555556 27.8263889,22.9583333 27.5625,23.5416667 C27.2986111,24.125 27.1666667,24.6388889 27.1666667,25.0833333 C27.1666667,25.3611111 27.2013889,25.7291667 27.2708333,26.1875 C27.3402778,26.6458333 27.3819444,26.9930556 27.3958333,27.2291667 C27.4097222,27.4652778 27.3333333,27.8055556 27.1666667,28.25 C27.25,28.3055556 27.375,28.4375 27.5416667,28.6458333 C27.7083333,28.8541667 27.8472222,29 27.9583333,29.0833333 C28.0138889,29.1111111 28.0763889,29.1319444 28.1458333,29.1458333 C28.2152778,29.1597222 28.2777778,29.1597222 28.3333333,29.1458333 C28.3888889,29.1319444 28.4444444,29.1527778 28.5,29.2083333 C28.5555556,29.2638889 28.5972222,29.3472222 28.625,29.4583333 C28.5972222,29.4861111 28.5416667,29.5277778 28.4583333,29.5833333 C28.375,29.6666667 28.3194444,29.7083333 28.2916667,29.7083333 C28.4861111,29.625 28.8819444,29.6458333 29.4791667,29.7708333 C30.0763889,29.8958333 30.4583333,29.875 30.625,29.7083333 C31.0416667,29.4027778 31.3472222,29.4305556 31.5416667,29.7916667 C31.5416667,29.8194444 31.5069444,29.9513889 31.4375,30.1875 C31.3680556,30.4236111 31.3611111,30.6111111 31.4166667,30.75 C31.5555556,30 31.9583333,29.875 32.625,30.375 C32.7083333,30.2916667 32.9236111,30.2222222 33.2708333,30.1666667 C33.6180556,30.1111111 33.8611111,30.0416667 34,29.9583333 C34.0833333,29.9027778 34.1805556,29.8263889 34.2916667,29.7291667 C34.4027778,29.6319444 34.4791667,29.5694444 34.5208333,29.5416667 C34.5625,29.5138889 34.6319444,29.5208333 34.7291667,29.5625 C34.8263889,29.6041667 34.9444444,29.6944444 35.0833333,29.8333333 C35.3611111,29.4444444 35.5277778,29.1111111 35.5833333,28.8333333 C35.8888889,27.7222222 36.1527778,27.1111111 36.375,27 C36.5694444,26.9166667 36.7222222,26.8888889 36.8333333,26.9166667 C36.9444444,26.9444444 37.0069444,27.0763889 37.0208333,27.3125 C37.0347222,27.5486111 37.0347222,27.7430556 37.0208333,27.8958333 C37.0069444,28.0486111 36.9861111,28.2222222 36.9583333,28.4166667 L36.9166667,28.75 L36.9166667,29.5 L36.875,29.8333333 C36.4583333,29.9166667 36.2013889,30.0833333 36.1041667,30.3333333 C36.0069444,30.5833333 36.0277778,30.8402778 36.1666667,31.1041667 C36.3055556,31.3680556 36.5138889,31.625 36.7916667,31.875 C36.8194444,31.9027778 36.9305556,31.9513889 37.125,32.0208333 C37.3194444,32.0902778 37.5347222,32.1805556 37.7708333,32.2916667 C38.0069444,32.4027778 38.1805556,32.5138889 38.2916667,32.625 C38.875,33.1527778 39.0833333,33.6388889 38.9166667,34.0833333 C39.1111111,34.0833333 39.2638889,34.2083333 39.375,34.4583333 C39.3472222,34.4583333 39.2777778,34.5 39.1666667,34.5833333 C39.0555556,34.6666667 38.9513889,34.7361111 38.8541667,34.7916667 C38.7569444,34.8472222 38.6944444,34.875 38.6666667,34.875 C38.9166667,35.0138889 38.9444444,35.2361111 38.75,35.5416667 C38.8888889,35.625 38.9930556,35.7777778 39.0625,36 C39.1319444,36.2222222 39.2361111,36.3611111 39.375,36.4166667 C39.625,36.0833333 39.9166667,36.0555556 40.25,36.3333333 C40.4444444,36.5555556 40.4583333,36.7777778 40.2916667,37 C40.4305556,37.1944444 40.7152778,37.3402778 41.1458333,37.4375 C41.5763889,37.5347222 41.8333333,37.6666667 41.9166667,37.8333333 C42.1111111,37.7777778 42.2222222,37.8055556 42.25,37.9166667 C42.2777778,38.0277778 42.2916667,38.1944444 42.2916667,38.4166667 C42.2916667,38.6388889 42.3333333,38.8055556 42.4166667,38.9166667 C42.5277778,39.0555556 42.7361111,39.1805556 43.0416667,39.2916667 C43.3472222,39.4027778 43.5277778,39.4722222 43.5833333,39.5 L44.2916667,39.9583333 C44.375,40.0694444 44.375,40.125 44.2916667,40.125 C44.7916667,40.0694444 45.2222222,40.2222222 45.5833333,40.5833333 C45.8611111,40.8888889 45.7777778,41.1666667 45.3333333,41.4166667 C45.4166667,41.5833333 45.375,41.7152778 45.2083333,41.8125 C45.0416667,41.9097222 44.8333333,41.9861111 44.5833333,42.0416667 C44.6666667,42.0694444 44.8263889,42.0763889 45.0625,42.0625 C45.2986111,42.0486111 45.4444444,42.0694444 45.5,42.125 C45.9166667,42.4027778 45.8194444,42.625 45.2083333,42.7916667 C44.7361111,42.9305556 44.1388889,42.7638889 43.4166667,42.2916667 L43.4166667,42.2916667 Z M36.625,5.75 C42.3472222,6.75 47.2222222,9.375 51.25,13.625 C51.1666667,13.7083333 50.9930556,13.7708333 50.7291667,13.8125 C50.4652778,13.8541667 50.2916667,13.9027778 50.2083333,13.9583333 C49.7083333,14.1527778 49.375,14.2638889 49.2083333,14.2916667 C49.2361111,14.4861111 49.2013889,14.6666667 49.1041667,14.8333333 C49.0069444,15 48.8958333,15.125 48.7708333,15.2083333 C48.6458333,15.2916667 48.4722222,15.4027778 48.25,15.5416667 C48.0277778,15.6805556 47.875,15.7777778 47.7916667,15.8333333 C47.7361111,15.8888889 47.6388889,15.9722222 47.5,16.0833333 C47.3611111,16.1944444 47.2638889,16.2708333 47.2083333,16.3125 C47.1527778,16.3541667 47.0486111,16.4166667 46.8958333,16.5 C46.7430556,16.5833333 46.625,16.6111111 46.5416667,16.5833333 C46.4583333,16.5555556 46.3194444,16.5416667 46.125,16.5416667 L46,16.5 C45.9166667,16.4722222 45.8402778,16.4375 45.7708333,16.3958333 C45.7013889,16.3541667 45.625,16.3125 45.5416667,16.2708333 C45.4583333,16.2291667 45.4027778,16.1875 45.375,16.1458333 C45.3472222,16.1041667 45.3472222,16.0694444 45.375,16.0416667 C44.7916667,16.5138889 44.2916667,16.8194444 43.875,16.9583333 C43.7361111,16.9861111 43.5833333,17.0625 43.4166667,17.1875 C43.25,17.3125 43.1041667,17.4097222 42.9791667,17.4791667 C42.8541667,17.5486111 42.7152778,17.5694444 42.5625,17.5416667 C42.4097222,17.5138889 42.25,17.4166667 42.0833333,17.25 C41.9444444,17.1111111 41.8611111,16.9027778 41.8333333,16.625 C41.8055556,16.3472222 41.7777778,16.1666667 41.75,16.0833333 C41.5555556,16.2222222 41.5555556,16.4652778 41.75,16.8125 C41.9444444,17.1597222 41.9722222,17.4166667 41.8333333,17.5833333 C41.75,17.75 41.6041667,17.8125 41.3958333,17.7708333 C41.1875,17.7291667 41.0208333,17.6666667 40.8958333,17.5833333 C40.7708333,17.5 40.6111111,17.3819444 40.4166667,17.2291667 C40.2222222,17.0763889 40.0972222,16.9861111 40.0416667,16.9583333 C39.9861111,16.9305556 39.8680556,16.8541667 39.6875,16.7291667 C39.5069444,16.6041667 39.3888889,16.5 39.3333333,16.4166667 C39.25,16.3055556 39.1666667,16.1388889 39.0833333,15.9166667 C39,15.6944444 38.9305556,15.5416667 38.875,15.4583333 C38.8194444,15.5694444 38.6597222,15.6597222 38.3958333,15.7291667 C38.1319444,15.7986111 38,15.875 38,15.9583333 C38.0555556,15.6805556 38.1111111,15.1944444 38.1666667,14.5 C38.2222222,13.8055556 38.2916667,13.2777778 38.375,12.9166667 C38.5694444,12.0555556 38.4027778,11.3888889 37.875,10.9166667 C37.125,10.2222222 36.7222222,9.66666667 36.6666667,9.25 C36.5555556,8.63888889 36.7222222,8.27777778 37.1666667,8.16666667 C37.1666667,7.97222222 37.0555556,7.6875 36.8333333,7.3125 C36.6111111,6.9375 36.5138889,6.63888889 36.5416667,6.41666667 C36.5416667,6.25 36.5694444,6.02777778 36.625,5.75 L36.625,5.75 Z" id="Shape" transform="translate(32.000000, 32.000000) scale(1, -1) translate(-32.000000, -32.000000)"></path>
    </g>
</svg>
