<?xml version="1.0" encoding="UTF-8" standalone="no"?>
<svg id="lastname" viewBox="0 0 64 20" version="1.1" xmlns="http://www.w3.org/2000/svg" xmlns:xlink="http://www.w3.org/1999/xlink">
    <title>Delnatte</title>
    <g stroke="none" stroke-width="1" fill="#000000" fill-rule="evenodd">
        <path d="M4,5 L7.72634955,5 C8.50454692,5 9.21788381,5.0997674 9.86638161,5.29930518 C10.5148794,5.49884297 11.0735768,5.80313353 11.5424906,6.212186 C12.0114044,6.62123846 12.3755554,7.1450173 12.6349546,7.78353821 C12.8943537,8.42205913 13.0240513,9.17530298 13.0240513,10.0432924 C13.0240513,10.8713742 12.8918595,11.5921936 12.6274719,12.2057723 C12.3630844,12.819351 11.993945,13.3331531 11.5200428,13.747194 C11.0461405,14.1612349 10.4849489,14.4705139 9.8364511,14.6750401 C9.18795329,14.8795663 8.47960477,14.9818279 7.71138429,14.9818279 L4,14.9818279 L4,5 Z M7.54676644,13.3057189 C8.68413182,13.3057189 9.55210818,13.0313585 10.1507215,12.4826296 C10.7493349,11.9339007 11.0486371,11.1307731 11.0486371,10.0732229 C11.0486371,9.02564949 10.7717826,8.1975801 10.2180652,7.58898985 C9.66434785,6.98039959 8.77392383,6.67610903 7.54676644,6.67610903 L5.88562266,6.67610903 L5.88562266,13.3057189 L7.54676644,13.3057189 Z M21.0603955,13.9641903 C21.0304648,13.9941209 20.9481567,14.076429 20.8134687,14.211117 C20.6787807,14.3458051 20.4842343,14.4879736 20.2298236,14.6376269 C19.9754129,14.7872803 19.6511689,14.9219663 19.2570818,15.0416889 C18.8629946,15.1614116 18.3915937,15.221272 17.8428648,15.221272 C17.284159,15.221272 16.7753452,15.126493 16.3164083,14.9369321 C15.8574714,14.7473712 15.4658844,14.4854818 15.1416355,14.151256 C14.8173866,13.8170302 14.5679681,13.4154664 14.3933725,12.9465526 C14.218777,12.4776388 14.1314805,11.9588484 14.1314805,11.3901657 C14.1314805,10.8713674 14.218777,10.3899897 14.3933725,9.94601817 C14.5679681,9.5020466 14.8123982,9.11544793 15.1266702,8.78621058 C15.4409422,8.45697323 15.81507,8.197578 16.2490647,8.0080171 C16.6830594,7.81845621 17.164437,7.72367718 17.6932122,7.72367718 C18.3317331,7.72367718 18.8729712,7.84090387 19.3169428,8.07536077 C19.7609144,8.30981767 20.1175828,8.61660242 20.3869588,8.99572421 C20.6563349,9.37484601 20.8508813,9.80384582 20.970604,10.2827365 C21.0903266,10.7616272 21.1501871,11.2504874 21.1501871,11.7493319 L21.1501871,12.0037413 L15.9123463,12.0037413 C15.9123463,12.2631404 15.9697126,12.4975938 16.0844468,12.7071085 C16.199181,12.9166232 16.3488321,13.0962045 16.5334046,13.2458578 C16.717977,13.3955112 16.9274886,13.5102437 17.1619455,13.5900588 C17.3964024,13.6698739 17.6283616,13.7097809 17.85783,13.7097809 C18.1970443,13.7097809 18.4938523,13.6773565 18.748263,13.6125067 C19.0026736,13.5476569 19.2196677,13.4728314 19.3992517,13.3880278 C19.5788357,13.3032242 19.7259927,13.2134336 19.8407269,13.1186531 C19.9554611,13.0238727 20.0427576,12.9465529 20.1026189,12.8866916 L21.0603955,13.9641903 Z M19.3393907,10.7316943 C19.3393907,10.5521103 19.3044721,10.372529 19.2346339,10.1929449 C19.1647957,10.0133609 19.0625341,9.85123892 18.9278461,9.70657402 C18.7931581,9.56190913 18.6210593,9.44218825 18.4115446,9.3474078 C18.20203,9.25262735 17.9625882,9.20523784 17.6932122,9.20523784 C17.4038824,9.20523784 17.1469813,9.25262735 16.9225013,9.3474078 C16.6980213,9.44218825 16.5109575,9.56190913 16.3613041,9.70657402 C16.2116508,9.85123892 16.0969183,10.0133609 16.0171032,10.1929449 C15.937288,10.372529 15.8973811,10.5521103 15.8973811,10.7316943 L19.3393907,10.7316943 Z M22.5120257,5 L24.2779262,5 L24.2779262,14.9818279 L22.5120257,14.9818279 L22.5120257,5 Z M26.0138963,7.96312133 L27.7049706,7.96312133 L27.7498664,8.75628006 C27.8396584,8.65651117 27.9469083,8.5517554 28.0716195,8.44200962 C28.1963306,8.33226384 28.3459817,8.23000226 28.5205772,8.13522181 C28.6951728,8.04044136 28.8922134,7.96312162 29.111705,7.90326029 C29.3311965,7.84339895 29.580615,7.81346873 29.8599679,7.81346873 C30.7379342,7.81346873 31.4063758,8.07535815 31.8653127,8.59914484 C32.3242496,9.12293153 32.5537146,9.82878587 32.5537146,10.716729 L32.5537146,14.9818279 L30.787814,14.9818279 L30.787814,10.7316943 C30.787814,10.2827343 30.6655989,9.93604255 30.4211652,9.69160877 C30.1767314,9.44717498 29.8599699,9.32495991 29.4708712,9.32495991 C29.2314258,9.32495991 29.0069492,9.37234943 28.7974345,9.46712988 C28.5879199,9.56191033 28.4083385,9.69410213 28.2586852,9.86370925 C28.1090319,10.0333164 27.9918052,10.230357 27.9070016,10.454837 C27.822198,10.679317 27.7797969,10.9212529 27.7797969,11.1806521 L27.7797969,14.9818279 L26.0138963,14.9818279 L26.0138963,7.96312133 Z M38.4051309,14.3233565 C38.21557,14.5528249 37.9262446,14.7573481 37.5371459,14.9369321 C37.1480472,15.1165161 36.714059,15.2063068 36.2351684,15.2063068 C35.9458386,15.2063068 35.6590073,15.1614115 35.374666,15.0716195 C35.0903246,14.9818275 34.8309294,14.8446473 34.5964725,14.6600748 C34.3620156,14.4755024 34.1724575,14.2385548 34.0277926,13.949225 C33.8831277,13.6598952 33.8107964,13.3206861 33.8107964,12.9315874 C33.8107964,12.5325118 33.8856219,12.1758434 34.0352753,11.8615714 C34.1849286,11.5472993 34.3944401,11.2829157 34.6638161,11.0684126 C34.9331922,10.8539095 35.2574362,10.6917875 35.636558,10.5820417 C36.0156798,10.4722959 36.4347029,10.4174238 36.8936398,10.4174238 C37.0333162,10.4174238 37.1879557,10.419918 37.3575628,10.4249065 C37.5271699,10.4298949 37.6917861,10.4373775 37.8514164,10.4473544 C38.0310004,10.4573312 38.21557,10.467308 38.4051309,10.4772849 L38.4051309,10.312667 C38.4051309,9.9634759 38.2654566,9.68911555 37.9861037,9.48957777 C37.7067508,9.29003998 37.3425998,9.19027258 36.8936398,9.19027258 C36.3947953,9.19027258 35.9957257,9.25512139 35.696419,9.38482095 C35.3971123,9.51452051 35.1327287,9.65419487 34.9032603,9.80384821 L34.0951363,8.60662747 C34.2348127,8.50685858 34.3944406,8.404597 34.5740246,8.29983966 C34.7536086,8.19508232 34.9631201,8.10030329 35.2025655,8.01549973 C35.4420108,7.93069617 35.7188653,7.860859 36.0331374,7.8059861 C36.3474094,7.75111321 36.7140546,7.72367718 37.1330839,7.72367718 C37.5820439,7.72367718 37.9885961,7.7860318 38.3527525,7.91074292 C38.716909,8.03545404 39.0286821,8.21004698 39.2880812,8.43452699 C39.5474804,8.659007 39.7470152,8.92837897 39.8866916,9.24265099 C40.0263681,9.556923 40.0962052,9.89862634 40.0962052,10.2677712 L40.0962052,14.9818279 L38.4500267,14.9818279 L38.4051309,14.3233565 Z M38.4051309,11.8091929 C38.2255469,11.7992161 38.050954,11.7892393 37.8813469,11.7792624 C37.7416704,11.7692855 37.5945135,11.761803 37.4398717,11.7568145 C37.2852299,11.7518261 37.1530381,11.7493319 37.0432924,11.7493319 C36.4746097,11.7493319 36.0755401,11.8615702 35.8460716,12.0860502 C35.6166032,12.3105303 35.5018707,12.5674313 35.5018707,12.8567611 C35.5018707,13.1560678 35.6091206,13.3905212 35.8236237,13.5601283 C36.0381269,13.7297354 36.3548883,13.8145377 36.7739177,13.8145377 C36.9834324,13.8145377 37.1854613,13.7796191 37.3800107,13.7097809 C37.57456,13.6399426 37.7466588,13.5451636 37.8963121,13.4254409 C38.0459655,13.3057183 38.1681805,13.1660439 38.262961,13.0064137 C38.3577414,12.8467835 38.4051309,12.6771789 38.4051309,12.4975949 L38.4051309,11.8091929 Z M42.4008552,9.39978621 L41.2036344,9.39978621 L41.2036344,7.96312133 L42.4008552,7.96312133 L42.4008552,5.68840192 L44.1667557,5.68840192 L44.1667557,7.96312133 L46.0523784,7.96312133 L46.0523784,9.39978621 L44.1667557,9.39978621 L44.1667557,12.4676644 C44.1667557,12.8667399 44.2340987,13.1735247 44.3687867,13.3880278 C44.5034748,13.6025309 44.7204688,13.7097809 45.0197755,13.7097809 C45.2991284,13.7097809 45.5211109,13.6698739 45.6857296,13.5900588 C45.8503482,13.5102437 46.0074819,13.4154646 46.1571352,13.3057189 L46.9053982,14.3981828 C46.5562071,14.6875126 46.2120095,14.8945299 45.8727953,15.019241 C45.5335811,15.1439522 45.1544649,15.2063068 44.7354356,15.2063068 C44.3064294,15.2063068 43.9422784,15.1439522 43.6429717,15.019241 C43.343665,14.8945299 43.1017291,14.7174428 42.9171566,14.4879743 C42.7325841,14.2585059 42.6003923,13.9816514 42.5205772,13.6574025 C42.4407621,13.3331536 42.4008552,12.9764851 42.4008552,12.5873864 L42.4008552,9.39978621 Z M48.1924105,9.39978621 L46.9951897,9.39978621 L46.9951897,7.96312133 L48.1924105,7.96312133 L48.1924105,5.68840192 L49.9583111,5.68840192 L49.9583111,7.96312133 L51.8439337,7.96312133 L51.8439337,9.39978621 L49.9583111,9.39978621 L49.9583111,12.4676644 C49.9583111,12.8667399 50.0256541,13.1735247 50.1603421,13.3880278 C50.2950301,13.6025309 50.5120242,13.7097809 50.8113308,13.7097809 C51.0906837,13.7097809 51.3126662,13.6698739 51.4772849,13.5900588 C51.6419035,13.5102437 51.7990372,13.4154646 51.9486905,13.3057189 L52.6969535,14.3981828 C52.3477624,14.6875126 52.0035649,14.8945299 51.6643506,15.019241 C51.3251364,15.1439522 50.9460203,15.2063068 50.5269909,15.2063068 C50.0979847,15.2063068 49.7338337,15.1439522 49.434527,15.019241 C49.1352203,14.8945299 48.8932844,14.7174428 48.7087119,14.4879743 C48.5241395,14.2585059 48.3919477,13.9816514 48.3121325,13.6574025 C48.2323174,13.3331536 48.1924105,12.9764851 48.1924105,12.5873864 L48.1924105,9.39978621 Z M59.9102084,13.9641903 C59.8802778,13.9941209 59.7979697,14.076429 59.6632817,14.211117 C59.5285937,14.3458051 59.3340472,14.4879736 59.0796366,14.6376269 C58.8252259,14.7872803 58.5009818,14.9219663 58.1068947,15.0416889 C57.7128076,15.1614116 57.2414066,15.221272 56.6926777,15.221272 C56.1339719,15.221272 55.6251582,15.126493 55.1662213,14.9369321 C54.7072844,14.7473712 54.3156973,14.4854818 53.9914484,14.151256 C53.6671995,13.8170302 53.417781,13.4154664 53.2431855,12.9465526 C53.0685899,12.4776388 52.9812934,11.9588484 52.9812934,11.3901657 C52.9812934,10.8713674 53.0685899,10.3899897 53.2431855,9.94601817 C53.417781,9.5020466 53.6622111,9.11544793 53.9764832,8.78621058 C54.2907552,8.45697323 54.6648829,8.197578 55.0988776,8.0080171 C55.5328723,7.81845621 56.01425,7.72367718 56.5430251,7.72367718 C57.181546,7.72367718 57.7227842,7.84090387 58.1667557,8.07536077 C58.6107273,8.30981767 58.9673958,8.61660242 59.2367718,8.99572421 C59.5061478,9.37484601 59.7006942,9.80384582 59.8204169,10.2827365 C59.9401396,10.7616272 60,11.2504874 60,11.7493319 L60,12.0037413 L54.7621593,12.0037413 C54.7621593,12.2631404 54.8195255,12.4975938 54.9342598,12.7071085 C55.048994,12.9166232 55.1986451,13.0962045 55.3832175,13.2458578 C55.56779,13.3955112 55.7773015,13.5102437 56.0117584,13.5900588 C56.2462153,13.6698739 56.4781745,13.7097809 56.707643,13.7097809 C57.0468572,13.7097809 57.3436652,13.6773565 57.5980759,13.6125067 C57.8524866,13.5476569 58.0694807,13.4728314 58.2490647,13.3880278 C58.4286487,13.3032242 58.5758056,13.2134336 58.6905398,13.1186531 C58.805274,13.0238727 58.8925705,12.9465529 58.9524319,12.8866916 L59.9102084,13.9641903 Z M58.1892036,10.7316943 C58.1892036,10.5521103 58.154285,10.372529 58.0844468,10.1929449 C58.0146086,10.0133609 57.912347,9.85123892 57.777659,9.70657402 C57.642971,9.56190913 57.4708722,9.44218825 57.2613576,9.3474078 C57.0518429,9.25262735 56.8124011,9.20523784 56.5430251,9.20523784 C56.2536953,9.20523784 55.9967943,9.25262735 55.7723143,9.3474078 C55.5478343,9.44218825 55.3607704,9.56190913 55.211117,9.70657402 C55.0614637,9.85123892 54.9467312,10.0133609 54.8669161,10.1929449 C54.787101,10.372529 54.747194,10.5521103 54.747194,10.7316943 L58.1892036,10.7316943 Z"></path>
    </g>
</svg>
