<?xml version="1.0" encoding="UTF-8" standalone="no"?>
<svg id="firstname" viewBox="0 0 64 20" version="1.1" xmlns="http://www.w3.org/2000/svg" xmlns:xlink="http://www.w3.org/1999/xlink">
    <title>Pierre-Antoine</title>
    <g stroke="none" stroke-width="1" fill="#000000" fill-rule="evenodd">
        <path d="M4,7 L5.88567674,7 C6.28427707,7 6.62001616,7.0444586 6.89290407,7.13337714 C7.16579199,7.22229567 7.38501888,7.34647314 7.55059133,7.50591327 C7.71616377,7.6653534 7.83574208,7.85238614 7.90932983,8.06701708 C7.98291758,8.28164803 8.01971091,8.51467242 8.01971091,8.76609724 C8.01971091,9.01752206 7.98291758,9.25054645 7.90932983,9.4651774 C7.83574208,9.67980834 7.71616377,9.86684108 7.55059133,10.0262812 C7.38501888,10.1857213 7.16579199,10.3098988 6.89290407,10.3988173 C6.62001616,10.4877359 6.28427707,10.5321945 5.88567674,10.5321945 L4.44152431,10.5321945 L4.44152431,13.1353482 L4,13.1353482 L4,7 Z M6.01445466,10.1182654 C6.52956894,10.1182654 6.91283273,10.0032863 7.16425756,9.77332457 C7.41568238,9.54336284 7.5413929,9.20762376 7.5413929,8.76609724 C7.5413929,8.32457072 7.41568238,7.98883164 7.16425756,7.75886991 C6.91283273,7.52890818 6.52956894,7.41392904 6.01445466,7.41392904 L4.44152431,7.41392904 L4.44152431,10.1182654 L6.01445466,10.1182654 Z M9.00394218,8.90407359 L9.41787122,8.90407359 L9.41787122,13.1353482 L9.00394218,13.1353482 L9.00394218,8.90407359 Z M8.92115637,7.41392904 L9.50065703,7.41392904 L9.50065703,8.02102497 L8.92115637,8.02102497 L8.92115637,7.41392904 Z M14.3758213,12.500657 C14.1918519,12.7336849 13.9419639,12.9161185 13.6261498,13.0479632 C13.3103357,13.1798079 12.9868611,13.2457293 12.6557162,13.2457293 C12.3429682,13.2457293 12.0532208,13.1920724 11.7864652,13.0847569 C11.5197096,12.9774414 11.2912843,12.825669 11.1011827,12.629435 C10.911081,12.4332009 10.7623746,12.1986435 10.6550591,11.9257556 C10.5477437,11.6528677 10.4940867,11.3508558 10.4940867,11.0197109 C10.4940867,10.7130953 10.5446775,10.4248809 10.6458607,10.1550591 C10.7470439,9.88523737 10.8865519,9.64914687 11.064389,9.44678055 C11.242226,9.24441423 11.4568538,9.08497649 11.7082786,8.96846255 C11.9597034,8.85194861 12.2356533,8.79369251 12.5361367,8.79369251 C12.8243554,8.79369251 13.09264,8.84428333 13.3409987,8.94546649 C13.5893574,9.04664965 13.8039851,9.19535601 13.9848883,9.39159001 C14.1657915,9.58782402 14.3068326,9.8315798 14.4080158,10.1228647 C14.5091989,10.4141495 14.5597898,10.7498886 14.5597898,11.130092 L10.9540079,11.130092 C10.9601402,11.3692522 11.0061319,11.5946113 11.0919842,11.8061761 C11.1778366,12.0177409 11.2943488,12.2017075 11.4415243,12.3580815 C11.5886998,12.5144554 11.7650012,12.6370999 11.9704336,12.7260184 C12.1758661,12.8149369 12.4042913,12.8593955 12.6557162,12.8593955 C12.7844947,12.8593955 12.9178705,12.845598 13.0558476,12.8180026 C13.1938246,12.7904072 13.3272004,12.7490147 13.455979,12.6938239 C13.5847575,12.6386331 13.7028028,12.5742448 13.8101183,12.500657 C13.9174337,12.4270693 14.007884,12.3442843 14.0814717,12.2522996 L14.3758213,12.500657 Z M14.109067,10.7713535 C14.0538762,10.2501069 13.8883062,9.85457866 13.6123522,9.5847569 C13.3363981,9.31493514 12.9776632,9.18002628 12.5361367,9.18002628 C12.3092411,9.18002628 12.1022786,9.22141877 11.9152431,9.30420499 C11.7282076,9.38699122 11.5672368,9.5004373 11.4323259,9.64454665 C11.297415,9.788656 11.1885681,9.95729207 11.1057819,10.1504599 C11.0229956,10.3436278 10.9754709,10.5505902 10.9632063,10.7713535 L14.109067,10.7713535 Z M15.6360053,9.79632063 L15.6360053,9.49737188 L15.6360053,9.27660972 C15.6360053,9.21222044 15.6344722,9.15089823 15.631406,9.09264126 C15.6283399,9.03438429 15.6237407,8.97152903 15.6176084,8.90407359 L16.0039422,8.90407359 C16.0100745,8.97152903 16.0146737,9.03591735 16.0177398,9.09724047 C16.020806,9.1585636 16.0238721,9.22448497 16.0269382,9.29500657 C16.0300044,9.36552817 16.0315375,9.44371398 16.0315375,9.52956636 L16.0315375,9.83311432 C16.080596,9.74112963 16.1465173,9.63841493 16.2293035,9.52496715 C16.3120898,9.41151936 16.4178706,9.30573855 16.5466491,9.20762155 C16.6754277,9.10950455 16.8256671,9.02671957 16.9973719,8.95926413 C17.1690766,8.89180869 17.3683738,8.85808147 17.5952694,8.85808147 C17.7301803,8.85808147 17.8466925,8.87954424 17.9448095,8.92247043 L17.82523,9.31800263 C17.7823038,9.29960569 17.731713,9.28734125 17.673456,9.28120894 C17.615199,9.27507662 17.5615421,9.27201051 17.5124836,9.27201051 C17.2917203,9.27201051 17.0924231,9.32106828 16.9145861,9.41918528 C16.736749,9.51730229 16.5834435,9.64607892 16.4546649,9.80551905 C16.3258863,9.96495919 16.2262378,10.1473928 16.1557162,10.3528252 C16.0851946,10.5582577 16.0499343,10.7652202 16.0499343,10.9737188 L16.0499343,13.1353482 L15.6360053,13.1353482 L15.6360053,9.79632063 Z M18.7358739,9.79632063 L18.7358739,9.49737188 L18.7358739,9.27660972 C18.7358739,9.21222044 18.7343408,9.15089823 18.7312746,9.09264126 C18.7282085,9.03438429 18.7236093,8.97152903 18.717477,8.90407359 L19.1038108,8.90407359 C19.1099431,8.97152903 19.1145423,9.03591735 19.1176084,9.09724047 C19.1206746,9.1585636 19.1237407,9.22448497 19.1268068,9.29500657 C19.129873,9.36552817 19.131406,9.44371398 19.131406,9.52956636 L19.131406,9.83311432 C19.1804645,9.74112963 19.2463859,9.63841493 19.3291721,9.52496715 C19.4119584,9.41151936 19.5177392,9.30573855 19.6465177,9.20762155 C19.7752963,9.10950455 19.9255357,9.02671957 20.0972405,8.95926413 C20.2689452,8.89180869 20.4682424,8.85808147 20.695138,8.85808147 C20.8300489,8.85808147 20.9465611,8.87954424 21.0446781,8.92247043 L20.9250986,9.31800263 C20.8821724,9.29960569 20.8315815,9.28734125 20.7733246,9.28120894 C20.7150676,9.27507662 20.6614107,9.27201051 20.6123522,9.27201051 C20.3915889,9.27201051 20.1922917,9.32106828 20.0144547,9.41918528 C19.8366176,9.51730229 19.6833121,9.64607892 19.5545335,9.80551905 C19.4257549,9.96495919 19.3261064,10.1473928 19.2555848,10.3528252 C19.1850632,10.5582577 19.1498029,10.7652202 19.1498029,10.9737188 L19.1498029,13.1353482 L18.7358739,13.1353482 L18.7358739,9.79632063 Z M25.2115637,12.500657 C25.0275943,12.7336849 24.7777064,12.9161185 24.4618922,13.0479632 C24.1460781,13.1798079 23.8226035,13.2457293 23.4914586,13.2457293 C23.1787107,13.2457293 22.8889632,13.1920724 22.6222076,13.0847569 C22.355452,12.9774414 22.1270268,12.825669 21.9369251,12.629435 C21.7468234,12.4332009 21.598117,12.1986435 21.4908016,11.9257556 C21.3834861,11.6528677 21.3298292,11.3508558 21.3298292,11.0197109 C21.3298292,10.7130953 21.38042,10.4248809 21.4816032,10.1550591 C21.5827863,9.88523737 21.7222943,9.64914687 21.9001314,9.44678055 C22.0779685,9.24441423 22.2925962,9.08497649 22.544021,8.96846255 C22.7954458,8.85194861 23.0713958,8.79369251 23.3718791,8.79369251 C23.6600978,8.79369251 23.9283825,8.84428333 24.1767411,8.94546649 C24.4250998,9.04664965 24.6397275,9.19535601 24.8206307,9.39159001 C25.001534,9.58782402 25.1425751,9.8315798 25.2437582,10.1228647 C25.3449414,10.4141495 25.3955322,10.7498886 25.3955322,11.130092 L21.7897503,11.130092 C21.7958826,11.3692522 21.8418743,11.5946113 21.9277267,11.8061761 C22.0135791,12.0177409 22.1300912,12.2017075 22.2772668,12.3580815 C22.4244423,12.5144554 22.6007436,12.6370999 22.8061761,12.7260184 C23.0116086,12.8149369 23.2400338,12.8593955 23.4914586,12.8593955 C23.6202372,12.8593955 23.753613,12.845598 23.89159,12.8180026 C24.029567,12.7904072 24.1629429,12.7490147 24.2917214,12.6938239 C24.4205,12.6386331 24.5385452,12.5742448 24.6458607,12.500657 C24.7531762,12.4270693 24.8436264,12.3442843 24.9172142,12.2522996 L25.2115637,12.500657 Z M24.9448095,10.7713535 C24.8896186,10.2501069 24.7240487,9.85457866 24.4480946,9.5847569 C24.1721405,9.31493514 23.8134056,9.18002628 23.3718791,9.18002628 C23.1449835,9.18002628 22.9380211,9.22141877 22.7509855,9.30420499 C22.56395,9.38699122 22.4029792,9.5004373 22.2680683,9.64454665 C22.1331575,9.788656 22.0243105,9.95729207 21.9415243,10.1504599 C21.8587381,10.3436278 21.8112134,10.5505902 21.7989488,10.7713535 L24.9448095,10.7713535 Z M26.5637319,10.3390276 L29.0932983,10.3390276 L29.0932983,10.7529566 L26.5637319,10.7529566 L26.5637319,10.3390276 Z M32.1655716,7 L32.6070959,7 L35.1182654,13.1353482 L34.6123522,13.1353482 L33.8120894,11.1576873 L30.9237845,11.1576873 L30.1327201,13.1353482 L29.6544021,13.1353482 L32.1655716,7 Z M33.6465177,10.7437582 L32.3679369,7.56110381 L31.0893561,10.7437582 L33.6465177,10.7437582 Z M35.9553219,9.79632063 L35.9553219,9.49737188 L35.9553219,9.27660972 C35.9553219,9.21222044 35.9537889,9.15089823 35.9507227,9.09264126 C35.9476566,9.03438429 35.9430574,8.97152903 35.9369251,8.90407359 L36.3232589,8.90407359 C36.3293912,8.97152903 36.3339903,9.03285124 36.3370565,9.08804205 C36.3401227,9.14323286 36.3431888,9.20302202 36.3462549,9.2674113 C36.3493211,9.33180058 36.3508541,9.40538723 36.3508541,9.48817346 L36.3508541,9.78712221 C36.3999126,9.69513752 36.4689001,9.59088976 36.5578187,9.47437582 C36.6467372,9.35786188 36.7571172,9.24901496 36.8889619,9.1478318 C37.0208066,9.04664864 37.1787113,8.9623306 37.3626807,8.89487516 C37.5466501,8.82741972 37.7582117,8.79369251 37.9973719,8.79369251 C38.2978552,8.79369251 38.5508093,8.83661806 38.7562418,8.92247043 C38.9616743,9.00832281 39.1287773,9.13250028 39.2575558,9.29500657 C39.3863344,9.45751286 39.4783177,9.65374392 39.5335085,9.88370565 C39.5886994,10.1136674 39.6162943,10.3696876 39.6162943,10.651774 L39.6162943,13.1353482 L39.2023653,13.1353482 L39.2023653,10.7897503 C39.2023653,10.4770024 39.1747703,10.216383 39.1195795,10.0078844 C39.0643887,9.79938573 38.9831368,9.63381577 38.8758213,9.51116951 C38.7685058,9.38852326 38.6366631,9.30267217 38.4802891,9.25361367 C38.3239151,9.20455516 38.1445477,9.18002628 37.9421813,9.18002628 C37.6723596,9.18002628 37.4393352,9.23521627 37.2431012,9.3455979 C37.0468672,9.45597953 36.8843633,9.5970206 36.7555848,9.76872536 C36.6268062,9.94043012 36.5302237,10.130529 36.4658344,10.3390276 C36.4014451,10.5475262 36.369251,10.7529556 36.369251,10.9553219 L36.369251,13.1353482 L35.9553219,13.1353482 L35.9553219,9.79632063 Z M41.2260184,9.29040736 L40.3797635,9.29040736 L40.3797635,8.90407359 L41.2260184,8.90407359 L41.2260184,7.50591327 L41.6399474,7.50591327 L41.6399474,8.90407359 L43.0381078,8.90407359 L43.0381078,9.29040736 L41.6399474,9.29040736 L41.6399474,11.7371879 C41.6399474,11.9886127 41.6583441,12.189443 41.695138,12.3396846 C41.7319319,12.4899263 41.7855888,12.6033724 41.8561104,12.6800263 C41.926632,12.7566802 42.0078839,12.807271 42.0998686,12.8318003 C42.1918533,12.8563295 42.2930349,12.868594 42.4034166,12.868594 C42.5567244,12.868594 42.6885671,12.840999 42.7989488,12.7858081 C42.9093304,12.7306173 43.0197104,12.6355679 43.130092,12.500657 L43.3876478,12.7490145 C43.2650016,12.9084546 43.1254936,13.031099 42.9691196,13.1169514 C42.8127456,13.2028038 42.6088493,13.2457293 42.3574244,13.2457293 C42.191852,13.2457293 42.0385465,13.2257996 41.8975033,13.1859396 C41.7564601,13.1460795 41.6368818,13.0724929 41.5387648,12.9651774 C41.4406478,12.8578619 41.363995,12.7137547 41.3088042,12.5328515 C41.2536134,12.3519483 41.2260184,12.120457 41.2260184,11.8383706 L41.2260184,9.29040736 Z M45.8528252,13.2457293 C45.5523419,13.2457293 45.2702598,13.1874732 45.0065703,13.0709593 C44.7428809,12.9544453 44.5113895,12.7950076 44.3120894,12.5926413 C44.1127892,12.3902749 43.9564176,12.1541844 43.8429698,11.8843627 C43.729522,11.6145409 43.6727989,11.3263265 43.6727989,11.0197109 C43.6727989,10.7130953 43.729522,10.4248809 43.8429698,10.1550591 C43.9564176,9.88523737 44.1127892,9.64914687 44.3120894,9.44678055 C44.5113895,9.24441423 44.7428809,9.08497649 45.0065703,8.96846255 C45.2702598,8.85194861 45.5523419,8.79369251 45.8528252,8.79369251 C46.1533086,8.79369251 46.4353907,8.85194861 46.6990802,8.96846255 C46.9627696,9.08497649 47.1942609,9.24441423 47.3935611,9.44678055 C47.5928613,9.64914687 47.7492329,9.88523737 47.8626807,10.1550591 C47.9761285,10.4248809 48.0328515,10.7130953 48.0328515,11.0197109 C48.0328515,11.3263265 47.9761285,11.6145409 47.8626807,11.8843627 C47.7492329,12.1541844 47.5928613,12.3902749 47.3935611,12.5926413 C47.1942609,12.7950076 46.9627696,12.9544453 46.6990802,13.0709593 C46.4353907,13.1874732 46.1533086,13.2457293 45.8528252,13.2457293 L45.8528252,13.2457293 Z M45.8528252,12.868594 C46.0981177,12.868594 46.328076,12.8195362 46.542707,12.7214192 C46.7573379,12.6233022 46.9428376,12.4914594 47.0992116,12.325887 C47.2555855,12.1603145 47.37823,11.9656165 47.4671485,11.7417871 C47.556067,11.5179577 47.6005256,11.277268 47.6005256,11.0197109 C47.6005256,10.7744184 47.554534,10.539861 47.4625493,10.3160315 C47.3705646,10.0922021 47.2463871,9.894438 47.0900131,9.72273325 C46.9336392,9.55102849 46.7481395,9.41611963 46.5335085,9.31800263 C46.3188776,9.21988562 46.0919854,9.17082786 45.8528252,9.17082786 C45.6014004,9.17082786 45.3699091,9.21988562 45.1583443,9.31800263 C44.9467795,9.41611963 44.7628129,9.54796238 44.6064389,9.71353482 C44.4500649,9.87910727 44.3274205,10.0738053 44.238502,10.2976347 C44.1495834,10.5214641 44.1051248,10.7621538 44.1051248,11.0197109 C44.1051248,11.2711357 44.1511165,11.5072262 44.2431012,11.7279895 C44.3350859,11.9487527 44.4592633,12.1449838 44.6156373,12.3166886 C44.7720113,12.4883933 44.957511,12.6233022 45.1721419,12.7214192 C45.3867729,12.8195362 45.613665,12.868594 45.8528252,12.868594 L45.8528252,12.868594 Z M49.109067,8.90407359 L49.5229961,8.90407359 L49.5229961,13.1353482 L49.109067,13.1353482 L49.109067,8.90407359 Z M49.0262812,7.41392904 L49.6057819,7.41392904 L49.6057819,8.02102497 L49.0262812,8.02102497 L49.0262812,7.41392904 Z M50.8291721,9.79632063 L50.8291721,9.49737188 L50.8291721,9.27660972 C50.8291721,9.21222044 50.8276391,9.15089823 50.8245729,9.09264126 C50.8215068,9.03438429 50.8169076,8.97152903 50.8107753,8.90407359 L51.1971091,8.90407359 C51.2032414,8.97152903 51.2078405,9.03285124 51.2109067,9.08804205 C51.2139729,9.14323286 51.217039,9.20302202 51.2201051,9.2674113 C51.2231713,9.33180058 51.2247043,9.40538723 51.2247043,9.48817346 C51.2247043,9.57095968 51.2247043,9.67060827 51.2247043,9.78712221 C51.2737628,9.69513752 51.3427503,9.59088976 51.4316689,9.47437582 C51.5205874,9.35786188 51.6309674,9.24901496 51.7628121,9.1478318 C51.8946568,9.04664864 52.0525615,8.9623306 52.2365309,8.89487516 C52.4205003,8.82741972 52.6320619,8.79369251 52.8712221,8.79369251 C53.1717054,8.79369251 53.4246595,8.83661806 53.630092,8.92247043 C53.8355245,9.00832281 54.0026275,9.13250028 54.131406,9.29500657 C54.2601846,9.45751286 54.3521679,9.65374392 54.4073587,9.88370565 C54.4625496,10.1136674 54.4901445,10.3696876 54.4901445,10.651774 L54.4901445,13.1353482 L54.0762155,13.1353482 L54.0762155,10.7897503 C54.0762155,10.4770024 54.0486205,10.216383 53.9934297,10.0078844 C53.9382389,9.79938573 53.856987,9.63381577 53.7496715,9.51116951 C53.642356,9.38852326 53.5105133,9.30267217 53.3541393,9.25361367 C53.1977653,9.20455516 53.0183979,9.18002628 52.8160315,9.18002628 C52.5462098,9.18002628 52.3131854,9.23521627 52.1169514,9.3455979 C51.9207174,9.45597953 51.7582135,9.5970206 51.629435,9.76872536 C51.5006564,9.94043012 51.4040739,10.130529 51.3396846,10.3390276 C51.2752953,10.5475262 51.2431012,10.7529556 51.2431012,10.9553219 L51.2431012,13.1353482 L50.8291721,13.1353482 L50.8291721,9.79632063 Z M59.3929041,12.500657 C59.2089347,12.7336849 58.9590467,12.9161185 58.6432326,13.0479632 C58.3274185,13.1798079 58.0039438,13.2457293 57.6727989,13.2457293 C57.360051,13.2457293 57.0703036,13.1920724 56.803548,13.0847569 C56.5367924,12.9774414 56.3083671,12.825669 56.1182654,12.629435 C55.9281637,12.4332009 55.7794574,12.1986435 55.6721419,11.9257556 C55.5648264,11.6528677 55.5111695,11.3508558 55.5111695,11.0197109 C55.5111695,10.7130953 55.5617603,10.4248809 55.6629435,10.1550591 C55.7641267,9.88523737 55.9036347,9.64914687 56.0814717,9.44678055 C56.2593088,9.24441423 56.4739365,9.08497649 56.7253614,8.96846255 C56.9767862,8.85194861 57.2527361,8.79369251 57.5532194,8.79369251 C57.8414381,8.79369251 58.1097228,8.84428333 58.3580815,8.94546649 C58.6064401,9.04664965 58.8210679,9.19535601 59.0019711,9.39159001 C59.1828743,9.58782402 59.3239154,9.8315798 59.4250986,10.1228647 C59.5262817,10.4141495 59.5768725,10.7498886 59.5768725,11.130092 L55.9710907,11.130092 C55.977223,11.3692522 56.0232146,11.5946113 56.109067,11.8061761 C56.1949194,12.0177409 56.3114316,12.2017075 56.4586071,12.3580815 C56.6057826,12.5144554 56.7820839,12.6370999 56.9875164,12.7260184 C57.1929489,12.8149369 57.4213741,12.8593955 57.6727989,12.8593955 C57.8015775,12.8593955 57.9349533,12.845598 58.0729304,12.8180026 C58.2109074,12.7904072 58.3442832,12.7490147 58.4730618,12.6938239 C58.6018403,12.6386331 58.7198856,12.5742448 58.8272011,12.500657 C58.9345165,12.4270693 59.0249668,12.3442843 59.0985545,12.2522996 L59.3929041,12.500657 Z M59.1261498,10.7713535 C59.070959,10.2501069 58.905389,9.85457866 58.629435,9.5847569 C58.3534809,9.31493514 57.994746,9.18002628 57.5532194,9.18002628 C57.3263239,9.18002628 57.1193614,9.22141877 56.9323259,9.30420499 C56.7452903,9.38699122 56.5843196,9.5004373 56.4494087,9.64454665 C56.3144978,9.788656 56.2056509,9.95729207 56.1228647,10.1504599 C56.0400784,10.3436278 55.9925537,10.5505902 55.9802891,10.7713535 L59.1261498,10.7713535 Z"></path>
    </g>
</svg>
