<?xml version="1.0" encoding="UTF-8" standalone="no"?>
<svg id="function" viewBox="0 0 64 20" version="1.1" xmlns="http://www.w3.org/2000/svg" xmlns:xlink="http://www.w3.org/1999/xlink">
    <title>Webdeveloper</title>
    <g stroke="none" stroke-width="1" fill="#000000" fill-rule="evenodd">
        <path d="M4,6 L4.49975211,6 L5.98049909,11.5435465 L7.54453809,6.18509337 L8.09056354,6.18509337 L9.5805652,11.5065278 L11.0520575,6 L11.5333003,6 L9.80267724,12.172864 L9.3121798,12.172864 L7.80366882,6.84217485 L6.22112048,12.172864 L5.70285903,12.172864 L4,6 Z M15.7719385,11.5342919 C15.5868442,11.7687446 15.3354282,11.9522937 15.017683,12.0849446 C14.6999378,12.2175956 14.3744852,12.28392 14.0413155,12.28392 C13.7266552,12.28392 13.435136,12.229935 13.1667493,12.1219633 C12.8983626,12.0139916 12.6685406,11.8612911 12.4772765,11.6638572 C12.2860124,11.4664233 12.1363967,11.2304316 12.0284251,10.9558751 C11.9204534,10.6813185 11.8664684,10.3774599 11.8664684,10.0442902 C11.8664684,9.7357997 11.9173685,9.44582298 12.0191704,9.17435135 C12.1209722,8.90287971 12.2613333,8.66534559 12.4402578,8.46174186 C12.6191823,8.25813813 12.8351224,8.09772548 13.0880846,7.98049909 C13.3410468,7.8632727 13.6186841,7.80466039 13.9210048,7.80466039 C14.2109859,7.80466039 14.480911,7.85556056 14.7307883,7.95736242 C14.9806656,8.05916428 15.1966057,8.20877993 15.3786151,8.40621385 C15.5606245,8.60364777 15.702528,8.84889403 15.8043299,9.14196001 C15.9061317,9.43502598 15.9570319,9.77281801 15.9570319,10.1553462 L12.3292018,10.1553462 C12.3353716,10.3959688 12.3816445,10.6227059 12.4680218,10.8355644 C12.5543992,11.0484228 12.6716238,11.2335143 12.8196992,11.3908445 C12.9677747,11.5481746 13.145154,11.671569 13.3518427,11.7610312 C13.5585313,11.8504935 13.7883533,11.8952239 14.0413155,11.8952239 C14.1708815,11.8952239 14.3050728,11.8813421 14.4438936,11.8535779 C14.5827143,11.8258138 14.7169056,11.7841682 14.8464717,11.7286399 C14.9760377,11.6731116 15.0948047,11.6083296 15.2027764,11.5342919 C15.3107481,11.4602541 15.4017514,11.3769629 15.4757891,11.2844158 L15.7719385,11.5342919 Z M15.5035531,9.79441415 C15.4480248,9.2699803 15.2814425,8.87203353 15.003801,8.60056189 C14.7261596,8.32909025 14.3652311,8.19335647 13.9210048,8.19335647 C13.6927218,8.19335647 13.4844939,8.23500206 13.2963147,8.3182945 C13.1081355,8.40158693 12.9461804,8.5157267 12.8104446,8.66071724 C12.6747087,8.80570777 12.5651963,8.975375 12.4819038,9.16972401 C12.3986114,9.36407303 12.3507961,9.57230099 12.3384565,9.79441415 L15.5035531,9.79441415 Z M17.0213188,6 L17.4377789,6 L17.4377789,8.67459924 C17.4933072,8.58205209 17.5627165,8.48487904 17.6460089,8.38307718 C17.7293014,8.28127531 17.8326441,8.18718712 17.9560403,8.10080978 C18.0794365,8.01443244 18.2259673,7.94348069 18.3956371,7.8879524 C18.5653069,7.83242412 18.7673651,7.80466039 19.0018179,7.80466039 C19.3288178,7.80466039 19.6126248,7.86173027 19.8532474,7.97587176 C20.09387,8.09001324 20.2928434,8.24734103 20.4501735,8.44785986 C20.6075037,8.64837868 20.7247283,8.8859128 20.8018509,9.16046934 C20.8789736,9.43502589 20.9175343,9.73271475 20.9175343,10.0535449 C20.9175343,10.4113938 20.8573795,10.7291343 20.7370683,11.0067757 C20.616757,11.2844172 20.4501746,11.517324 20.2373161,11.7055032 C20.0244577,11.8936824 19.7745841,12.0371284 19.487688,12.1358453 C19.2007918,12.2345623 18.8907635,12.28392 18.5575938,12.28392 C18.2491033,12.28392 17.9575841,12.2576987 17.6830276,12.2052553 C17.4084711,12.1528119 17.1879037,12.0895723 17.0213188,12.0155346 L17.0213188,6 Z M17.4285242,11.7286399 C17.5025619,11.7533191 17.6305836,11.7872526 17.812593,11.8304412 C17.9946024,11.8736299 18.2460183,11.8952239 18.5668485,11.8952239 C18.8383201,11.8952239 19.0897361,11.8566632 19.3211039,11.7795406 C19.5524718,11.7024179 19.7545301,11.5867357 19.9272847,11.4324905 C20.1000394,11.2782452 20.2342308,11.0854416 20.3298628,10.8540737 C20.4254949,10.6227058 20.4733102,10.3527807 20.4733102,10.0442902 C20.4733102,9.7974978 20.4455465,9.56150611 20.3900182,9.33630805 C20.3344899,9.11110999 20.2465714,8.91522146 20.1262601,8.74863659 C20.0059488,8.58205172 19.8501635,8.4494028 19.6588994,8.35068584 C19.4676352,8.25196888 19.233186,8.20261114 18.9555445,8.20261114 C18.6964125,8.20261114 18.4712178,8.2581386 18.2799537,8.36919517 C18.0886896,8.48025175 17.9298194,8.61907039 17.8033383,8.78565526 C17.6768572,8.95224013 17.582769,9.13578922 17.5210709,9.33630805 C17.4593728,9.53682687 17.4285242,9.72654568 17.4285242,9.90547017 L17.4285242,11.7286399 Z M25.2764832,12.172864 C25.2703134,12.0926565 25.2672286,12.0124501 25.2672286,11.9322426 C25.2610587,11.8643747 25.2579739,11.7857108 25.2579739,11.6962486 L25.2579739,11.4324905 C25.1654267,11.5929056 25.0420324,11.7348091 24.8877871,11.8582053 C24.7582211,11.963092 24.5947236,12.0602651 24.3972897,12.1497273 C24.1998558,12.2391896 23.9623217,12.28392 23.6846802,12.28392 C23.3576803,12.28392 23.0738733,12.2268501 22.8332507,12.1127086 C22.5926281,11.9985672 22.3936547,11.8427818 22.2363246,11.6453479 C22.0789944,11.447914 21.9617698,11.2150071 21.8846472,10.9466204 C21.8075245,10.6782337 21.7689638,10.3897994 21.7689638,10.0813089 C21.7689638,9.73579952 21.8229488,9.42268636 21.9309205,9.14196001 C22.0388922,8.86123365 22.1900503,8.6221571 22.3843993,8.42472319 C22.5787483,8.22728927 22.8101127,8.07458876 23.0784994,7.96661709 C23.3468862,7.85864541 23.6414902,7.80466039 23.9623203,7.80466039 C24.1412448,7.80466039 24.3062847,7.8262544 24.4574451,7.86944307 C24.6086054,7.91263174 24.7458816,7.95890462 24.8692778,8.0082631 C25.0050136,8.0699612 25.1345777,8.13782809 25.2579739,8.21186581 L25.2579739,6 L25.6651793,6 L25.6651793,11.2844158 L25.6651793,11.6314659 C25.6651793,11.7394375 25.6682642,11.8335257 25.674434,11.9137333 C25.674434,12.0124502 25.6775188,12.0988263 25.6836886,12.172864 L25.2764832,12.172864 Z M25.2579739,8.66534457 C25.1654267,8.57896723 25.0574567,8.50184576 24.9340605,8.43397785 C24.8291737,8.37227976 24.6934399,8.3167523 24.5268551,8.26739382 C24.3602702,8.21803534 24.169009,8.19335647 23.9530656,8.19335647 C23.7309525,8.19335647 23.5165548,8.22883235 23.3098661,8.29978516 C23.1031775,8.37073797 22.918086,8.48333532 22.754586,8.63758057 C22.5910861,8.79182581 22.4599796,8.98925677 22.3612626,9.22987936 C22.2625456,9.47050195 22.2131879,9.75739381 22.2131879,10.0905635 C22.2131879,10.3311861 22.2409516,10.5594657 22.2964799,10.775409 C22.3520082,10.9913524 22.4399267,11.1826136 22.560238,11.3491985 C22.6805493,11.5157833 22.8363346,11.6484323 23.0275987,11.7471492 C23.2188629,11.8458662 23.4533121,11.8952239 23.7309536,11.8952239 C23.9900856,11.8952239 24.2152803,11.8474086 24.4065444,11.7517766 C24.5978085,11.6561445 24.7566787,11.5373775 24.8831598,11.3954718 C25.0096409,11.2535662 25.1037291,11.1039505 25.1654272,10.9466204 C25.2271253,10.7892902 25.2579739,10.6489292 25.2579739,10.525533 L25.2579739,8.66534457 Z M30.6534457,11.5342919 C30.4683514,11.7687446 30.2169354,11.9522937 29.8991902,12.0849446 C29.581445,12.2175956 29.2559924,12.28392 28.9228227,12.28392 C28.6081624,12.28392 28.3166432,12.229935 28.0482565,12.1219633 C27.7798698,12.0139916 27.5500478,11.8612911 27.3587837,11.6638572 C27.1675196,11.4664233 27.0179039,11.2304316 26.9099322,10.9558751 C26.8019606,10.6813185 26.7479755,10.3774599 26.7479755,10.0442902 C26.7479755,9.7357997 26.7988757,9.44582298 26.9006776,9.17435135 C27.0024794,8.90287971 27.1428405,8.66534559 27.321765,8.46174186 C27.5006895,8.25813813 27.7166296,8.09772548 27.9695918,7.98049909 C28.222554,7.8632727 28.5001913,7.80466039 28.802512,7.80466039 C29.092493,7.80466039 29.3624182,7.85556056 29.6122955,7.95736242 C29.8621728,8.05916428 30.0781129,8.20877993 30.2601223,8.40621385 C30.4421317,8.60364777 30.5840352,8.84889403 30.6858371,9.14196001 C30.7876389,9.43502598 30.8385391,9.77281801 30.8385391,10.1553462 L27.210709,10.1553462 C27.2168788,10.3959688 27.2631517,10.6227059 27.349529,10.8355644 C27.4359063,11.0484228 27.553131,11.2335143 27.7012064,11.3908445 C27.8492819,11.5481746 28.0266612,11.671569 28.2333499,11.7610312 C28.4400385,11.8504935 28.6698605,11.8952239 28.9228227,11.8952239 C29.0523887,11.8952239 29.18658,11.8813421 29.3254008,11.8535779 C29.4642215,11.8258138 29.5984128,11.7841682 29.7279788,11.7286399 C29.8575449,11.6731116 29.9763119,11.6083296 30.0842836,11.5342919 C30.1922553,11.4602541 30.2832586,11.3769629 30.3572963,11.2844158 L30.6534457,11.5342919 Z M30.3850603,9.79441415 C30.329532,9.2699803 30.1629497,8.87203353 29.8853082,8.60056189 C29.6076668,8.32909025 29.2467383,8.19335647 28.802512,8.19335647 C28.574229,8.19335647 28.3660011,8.23500206 28.1778218,8.3182945 C27.9896426,8.40158693 27.8276876,8.5157267 27.6919517,8.66071724 C27.5562159,8.80570777 27.4467034,8.975375 27.363411,9.16972401 C27.2801186,9.36407303 27.2323033,9.57230099 27.2199636,9.79441415 L30.3850603,9.79441415 Z M31.1717072,7.91571641 L31.6436953,7.91571641 L33.2447529,11.6638572 L34.8365559,7.91571641 L35.2715254,7.91571641 L33.4205916,12.172864 L33.0318956,12.172864 L31.1717072,7.91571641 Z M39.4176169,11.5342919 C39.2325226,11.7687446 38.9811066,11.9522937 38.6633614,12.0849446 C38.3456162,12.2175956 38.0201636,12.28392 37.6869939,12.28392 C37.3723336,12.28392 37.0808144,12.229935 36.8124277,12.1219633 C36.544041,12.0139916 36.314219,11.8612911 36.1229549,11.6638572 C35.9316908,11.4664233 35.7820751,11.2304316 35.6741035,10.9558751 C35.5661318,10.6813185 35.5121468,10.3774599 35.5121468,10.0442902 C35.5121468,9.7357997 35.5630469,9.44582298 35.6648488,9.17435135 C35.7666506,8.90287971 35.9070117,8.66534559 36.0859362,8.46174186 C36.2648607,8.25813813 36.4808008,8.09772548 36.733763,7.98049909 C36.9867252,7.8632727 37.2643625,7.80466039 37.5666832,7.80466039 C37.8566643,7.80466039 38.1265894,7.85556056 38.3764667,7.95736242 C38.626344,8.05916428 38.8422841,8.20877993 39.0242935,8.40621385 C39.2063029,8.60364777 39.3482064,8.84889403 39.4500083,9.14196001 C39.5518101,9.43502598 39.6027103,9.77281801 39.6027103,10.1553462 L35.9748802,10.1553462 C35.98105,10.3959688 36.0273229,10.6227059 36.1137002,10.8355644 C36.2000776,11.0484228 36.3173022,11.2335143 36.4653776,11.3908445 C36.6134531,11.5481746 36.7908324,11.671569 36.9975211,11.7610312 C37.2042097,11.8504935 37.4340317,11.8952239 37.6869939,11.8952239 C37.8165599,11.8952239 37.9507512,11.8813421 38.089572,11.8535779 C38.2283927,11.8258138 38.362584,11.7841682 38.4921501,11.7286399 C38.6217161,11.6731116 38.7404831,11.6083296 38.8484548,11.5342919 C38.9564265,11.4602541 39.0474298,11.3769629 39.1214675,11.2844158 L39.4176169,11.5342919 Z M39.1492315,9.79441415 C39.0937032,9.2699803 38.9271209,8.87203353 38.6494794,8.60056189 C38.371838,8.32909025 38.0109095,8.19335647 37.5666832,8.19335647 C37.3384002,8.19335647 37.1301723,8.23500206 36.9419931,8.3182945 C36.7538139,8.40158693 36.5918588,8.5157267 36.456123,8.66071724 C36.3203871,8.80570777 36.2108747,8.975375 36.1275822,9.16972401 C36.0442898,9.36407303 35.9964745,9.57230099 35.9841349,9.79441415 L39.1492315,9.79441415 Z M40.6669972,6 L41.0834573,6 L41.0834573,12.172864 L40.6669972,12.172864 L40.6669972,6 Z M44.3411006,12.28392 C44.03878,12.28392 43.754973,12.2253077 43.4896711,12.1080813 C43.2243693,11.9908549 42.9914625,11.8304423 42.7909436,11.6268385 C42.5904248,11.4232348 42.433097,11.1857007 42.3189555,10.9142291 C42.2048141,10.6427574 42.1477442,10.3527807 42.1477442,10.0442902 C42.1477442,9.7357997 42.2048141,9.44582298 42.3189555,9.17435135 C42.433097,8.90287971 42.5904248,8.66534559 42.7909436,8.46174186 C42.9914625,8.25813813 43.2243693,8.09772548 43.4896711,7.98049909 C43.754973,7.8632727 44.03878,7.80466039 44.3411006,7.80466039 C44.6434213,7.80466039 44.9272283,7.8632727 45.1925302,7.98049909 C45.457832,8.09772548 45.6907388,8.25813813 45.8912576,8.46174186 C46.0917765,8.66534559 46.2491043,8.90287971 46.3632457,9.17435135 C46.4773872,9.44582298 46.5344571,9.7357997 46.5344571,10.0442902 C46.5344571,10.3527807 46.4773872,10.6427574 46.3632457,10.9142291 C46.2491043,11.1857007 46.0917765,11.4232348 45.8912576,11.6268385 C45.6907388,11.8304423 45.457832,11.9908549 45.1925302,12.1080813 C44.9272283,12.2253077 44.6434213,12.28392 44.3411006,12.28392 L44.3411006,12.28392 Z M44.3411006,11.9044786 C44.587893,11.9044786 44.8192574,11.8551209 45.0352008,11.7564039 C45.2511441,11.6576869 45.4377781,11.525038 45.5951082,11.3584531 C45.7524384,11.1918683 45.8758327,10.9959798 45.965295,10.7707817 C46.0547572,10.5455836 46.0994877,10.3034222 46.0994877,10.0442902 C46.0994877,9.7974978 46.0532148,9.56150611 45.9606677,9.33630805 C45.8681205,9.11110999 45.7431837,8.9121366 45.5858536,8.73938192 C45.4285234,8.56662724 45.2418895,8.43089346 45.0259461,8.3321765 C44.8100028,8.23345954 44.5817232,8.1841018 44.3411006,8.1841018 C44.0881384,8.1841018 43.8552316,8.23345954 43.6423732,8.3321765 C43.4295147,8.43089346 43.2444232,8.56354238 43.087093,8.73012725 C42.9297629,8.89671212 42.8063685,9.09260065 42.7169063,9.31779871 C42.6274441,9.54299677 42.5827136,9.78515818 42.5827136,10.0442902 C42.5827136,10.2972524 42.6289865,10.5347865 42.7215336,10.7568997 C42.8140808,10.9790128 42.9390176,11.1764438 43.0963477,11.3491985 C43.2536779,11.5219532 43.4403118,11.6576869 43.6562552,11.7564039 C43.8721985,11.8551209 44.1004781,11.9044786 44.3411006,11.9044786 L44.3411006,11.9044786 Z M47.6172533,8.81341927 L47.6172533,8.51264254 L47.6172533,8.29053049 C47.6172533,8.22574749 47.6157109,8.16405031 47.612626,8.10543712 C47.6095411,8.04682392 47.6049138,7.98358432 47.598744,7.91571641 L47.9874401,7.91571641 C47.9936099,7.98358432 47.9982372,8.04373906 48.0013221,8.09618245 C48.004407,8.14862583 48.0074919,8.20261086 48.0105768,8.25813915 C48.0136617,8.31366744 48.0167465,8.37690704 48.0198314,8.44785986 C48.0229163,8.51881267 48.0244588,8.60364629 48.0244588,8.70236325 C48.0553078,8.64683496 48.1046656,8.56971349 48.1725335,8.47099653 C48.2404014,8.37227957 48.3375744,8.27356409 48.4640555,8.17484713 C48.5905366,8.07613017 48.746322,7.98975413 48.9314163,7.91571641 C49.1165106,7.84167869 49.3386204,7.80466039 49.5977524,7.80466039 C49.9247524,7.80466039 50.2085594,7.8632727 50.449182,7.98049909 C50.6898045,8.09772548 50.8887779,8.25813813 51.0461081,8.46174186 C51.2034382,8.66534559 51.3206629,8.90442214 51.3977855,9.17897868 C51.4749081,9.45353522 51.5134688,9.75122409 51.5134688,10.0720542 C51.5134688,10.4052239 51.4594838,10.7075401 51.3515121,10.9790117 C51.2435405,11.2504834 51.0923824,11.4833902 50.8980334,11.6777392 C50.7036844,11.8720882 50.4754048,12.0217039 50.2131879,12.1265906 C49.950971,12.2314774 49.6656216,12.28392 49.3571311,12.28392 C49.0548104,12.28392 48.7956822,12.2422744 48.5797389,12.158982 C48.3637955,12.0756896 48.178704,11.9908559 48.0244588,11.9044786 L48.0244588,14.0237977 L47.6172533,14.0237977 L47.6172533,8.81341927 Z M48.0244588,11.4324905 C48.0676474,11.4633395 48.1262598,11.5049851 48.2002975,11.5574285 C48.2743352,11.6098719 48.366881,11.6607721 48.4779375,11.7101306 C48.5889941,11.759489 48.7170157,11.8026771 48.8620063,11.8396959 C49.0069968,11.8767148 49.1720368,11.8952239 49.3571311,11.8952239 C49.5915838,11.8952239 49.8136937,11.8551208 50.0234672,11.7749132 C50.2332407,11.6947057 50.4152474,11.5774811 50.5694926,11.4232358 C50.7237379,11.2689906 50.8455898,11.0792718 50.9350521,10.8540737 C51.0245143,10.6288756 51.0692448,10.3682051 51.0692448,10.0720542 C51.0692448,9.82526181 51.041481,9.58772769 50.9859527,9.35944472 C50.9304244,9.13116175 50.842506,8.93064594 50.7221947,8.75789126 C50.6018834,8.58513658 50.446098,8.44786037 50.2548339,8.3460585 C50.0635698,8.24425664 49.8291205,8.19335647 49.5514791,8.19335647 C49.3663848,8.19335647 49.19826,8.2211202 49.0470997,8.27664849 C48.8959393,8.33217678 48.761748,8.40775582 48.6445216,8.50338787 C48.5272952,8.59901992 48.4254948,8.71007484 48.3391175,8.83655594 C48.2527402,8.96303705 48.1848733,9.09414354 48.1355148,9.22987936 C48.0923261,9.34093594 48.06302,9.47358486 48.0475954,9.62783011 C48.0321709,9.78207536 48.0244588,9.93940315 48.0244588,10.0998182 L48.0244588,11.4324905 Z M56.2703685,11.5342919 C56.0852742,11.7687446 55.8338583,11.9522937 55.516113,12.0849446 C55.1983678,12.2175956 54.8729152,12.28392 54.5397455,12.28392 C54.2250852,12.28392 53.933566,12.229935 53.6651793,12.1219633 C53.3967926,12.0139916 53.1669706,11.8612911 52.9757065,11.6638572 C52.7844424,11.4664233 52.6348267,11.2304316 52.5268551,10.9558751 C52.4188834,10.6813185 52.3648984,10.3774599 52.3648984,10.0442902 C52.3648984,9.7357997 52.4157985,9.44582298 52.5176004,9.17435135 C52.6194023,8.90287971 52.7597633,8.66534559 52.9386878,8.46174186 C53.1176123,8.25813813 53.3335524,8.09772548 53.5865146,7.98049909 C53.8394768,7.8632727 54.1171141,7.80466039 54.4194348,7.80466039 C54.7094159,7.80466039 54.979341,7.85556056 55.2292183,7.95736242 C55.4790956,8.05916428 55.6950357,8.20877993 55.8770451,8.40621385 C56.0590545,8.60364777 56.200958,8.84889403 56.3027599,9.14196001 C56.4045617,9.43502598 56.4554619,9.77281801 56.4554619,10.1553462 L52.8276318,10.1553462 C52.8338016,10.3959688 52.8800745,10.6227059 52.9664518,10.8355644 C53.0528292,11.0484228 53.1700538,11.2335143 53.3181292,11.3908445 C53.4662047,11.5481746 53.643584,11.671569 53.8502727,11.7610312 C54.0569613,11.8504935 54.2867833,11.8952239 54.5397455,11.8952239 C54.6693115,11.8952239 54.8035029,11.8813421 54.9423236,11.8535779 C55.0811443,11.8258138 55.2153357,11.7841682 55.3449017,11.7286399 C55.4744677,11.6731116 55.5932347,11.6083296 55.7012064,11.5342919 C55.8091781,11.4602541 55.9001814,11.3769629 55.9742191,11.2844158 L56.2703685,11.5342919 Z M56.0019831,9.79441415 C55.9464549,9.2699803 55.7798725,8.87203353 55.502231,8.60056189 C55.2245896,8.32909025 54.8636611,8.19335647 54.4194348,8.19335647 C54.1911518,8.19335647 53.9829239,8.23500206 53.7947447,8.3182945 C53.6065655,8.40158693 53.4446104,8.5157267 53.3088746,8.66071724 C53.1731387,8.80570777 53.0636263,8.975375 52.9803338,9.16972401 C52.8970414,9.36407303 52.8492261,9.57230099 52.8368865,9.79441415 L56.0019831,9.79441415 Z M57.5382581,8.81341927 L57.5382581,8.51264254 L57.5382581,8.29053049 C57.5382581,8.22574749 57.5367157,8.16405031 57.5336308,8.10543712 C57.5305459,8.04682392 57.5259186,7.98358432 57.5197488,7.91571641 L57.9084449,7.91571641 C57.9146147,7.98358432 57.919242,8.04836635 57.9223269,8.11006445 C57.9254118,8.17176255 57.9284967,8.23808701 57.9315816,8.30903983 C57.9346665,8.37999264 57.9362089,8.45865654 57.9362089,8.54503388 L57.9362089,8.85043794 C57.9855674,8.75789079 58.0518918,8.65454803 58.1351843,8.54040654 C58.2184767,8.42626506 58.3249043,8.31983744 58.4544703,8.22112048 C58.5840363,8.12240352 58.7351944,8.03911233 58.9079491,7.97124442 C59.0807038,7.90337651 59.2812196,7.86944307 59.5095026,7.86944307 C59.6452384,7.86944307 59.762463,7.89103708 59.86118,7.93422575 L59.7408693,8.3321765 C59.6976806,8.31366707 59.6467804,8.30132764 59.5881672,8.29515783 C59.5295541,8.28898802 59.475569,8.28590316 59.4262105,8.28590316 C59.2040974,8.28590316 59.0035816,8.3352609 58.8246571,8.43397785 C58.6457326,8.53269481 58.4914897,8.66225888 58.3619236,8.82267394 C58.2323576,8.983089 58.1320997,9.16663809 58.0611469,9.37332672 C57.9901941,9.58001536 57.9547182,9.78824332 57.9547182,9.99801686 L57.9547182,12.172864 L57.5382581,12.172864 L57.5382581,8.81341927 Z"></path>
    </g>
</svg>
